SplineFontDB: 3.0
FontName: CodifiedBraille-Regular
FullName: Codified Braille
FamilyName: CodifiedBraille
Weight: Regular
Copyright: Copyright (c) 2017, Guillermo Robles. Licensed under the SIL Open Font License, version 1.1
UComments: "2017-8-7: Created with FontForge (http://fontforge.org)"
Version: 0.1
ItalicAngle: 0
UnderlinePosition: -51
UnderlineWidth: 25
Ascent: 410
Descent: 102
InvalidEm: 0
LayerCount: 2
Layer: 0 0 "Back" 1
Layer: 1 0 "Fore" 0
XUID: [1021 514 -681402365 1851030]
StyleMap: 0x0000
FSType: 0
OS2Version: 0
OS2_WeightWidthSlopeOnly: 0
OS2_UseTypoMetrics: 1
CreationTime: 1502134560
ModificationTime: 1502328133
OS2TypoAscent: 0
OS2TypoAOffset: 1
OS2TypoDescent: 0
OS2TypoDOffset: 1
OS2TypoLinegap: 46
OS2WinAscent: 0
OS2WinAOffset: 1
OS2WinDescent: 0
OS2WinDOffset: 1
HheadAscent: 0
HheadAOffset: 1
HheadDescent: 0
HheadDOffset: 1
OS2Vendor: 'PfEd'
MarkAttachClasses: 1
DEI: 91125
Encoding: ISO8859-1
UnicodeInterp: none
NameList: AGL For New Fonts
DisplaySize: -48
AntiAlias: 1
FitToEm: 0
WinInfo: 0 27 10
BeginPrivate: 0
EndPrivate
BeginChars: 256 84

StartChar: at
Encoding: 64 64 0
Width: 512
VWidth: 0
Flags: HW
LayerCount: 2
Fore
SplineSet
289 38 m 0
 289 20 304 5 322 5 c 0
 340 5 355 20 355 38 c 0
 355 56 340 71 322 71 c 0
 304 71 289 56 289 38 c 0
284 38 m 0
 284 59 301 76 322 76 c 0
 343 76 360 59 360 38 c 0
 360 17 343 0 322 0 c 0
 301 0 284 17 284 38 c 0
157 38 m 0
 157 20 172 5 190 5 c 0
 208 5 223 20 223 38 c 0
 223 56 208 71 190 71 c 0
 172 71 157 56 157 38 c 0
152 38 m 0
 152 59 169 76 190 76 c 0
 211 76 228 59 228 38 c 0
 228 17 211 0 190 0 c 0
 169 0 152 17 152 38 c 0
289 170 m 0
 289 152 304 137 322 137 c 0
 340 137 355 152 355 170 c 0
 355 188 340 204 322 204 c 0
 304 204 289 188 289 170 c 0
284 170 m 0
 284 191 301 209 322 209 c 0
 343 209 360 191 360 170 c 0
 360 149 343 132 322 132 c 0
 301 132 284 149 284 170 c 0
157 170 m 0
 157 152 172 137 190 137 c 0
 208 137 223 152 223 170 c 0
 223 188 208 204 190 204 c 0
 172 204 157 188 157 170 c 0
152 170 m 0
 152 191 169 209 190 209 c 0
 211 209 228 191 228 170 c 0
 228 149 211 132 190 132 c 0
 169 132 152 149 152 170 c 0
289 302 m 0
 289 284 304 269 322 269 c 0
 340 269 355 284 355 302 c 0
 355 320 340 335 322 335 c 0
 304 335 289 320 289 302 c 0
284 302 m 0
 284 323 301 340 322 340 c 0
 343 340 360 323 360 302 c 0
 360 281 343 264 322 264 c 0
 301 264 284 281 284 302 c 0
157 302 m 0
 157 284 172 269 190 269 c 0
 208 269 223 284 223 302 c 0
 223 320 208 335 190 335 c 0
 172 335 157 320 157 302 c 0
152 302 m 0
 152 323 169 340 190 340 c 0
 211 340 228 323 228 302 c 0
 228 281 211 264 190 264 c 0
 169 264 152 281 152 302 c 0
EndSplineSet
Validated: 1
EndChar

StartChar: A
Encoding: 65 65 1
Width: 512
VWidth: 0
Flags: HW
LayerCount: 2
Fore
SplineSet
289 38 m 0
 289 20 304 5 322 5 c 0
 340 5 355 20 355 38 c 0
 355 56 340 71 322 71 c 0
 304 71 289 56 289 38 c 0
284 38 m 0
 284 59 301 76 322 76 c 0
 343 76 360 59 360 38 c 0
 360 17 343 0 322 0 c 0
 301 0 284 17 284 38 c 0
157 38 m 0
 157 20 172 5 190 5 c 0
 208 5 223 20 223 38 c 0
 223 56 208 71 190 71 c 0
 172 71 157 56 157 38 c 0
152 38 m 0
 152 59 169 76 190 76 c 0
 211 76 228 59 228 38 c 0
 228 17 211 0 190 0 c 0
 169 0 152 17 152 38 c 0
289 170 m 0
 289 152 304 137 322 137 c 0
 340 137 355 152 355 170 c 0
 355 188 340 204 322 204 c 0
 304 204 289 188 289 170 c 0
284 170 m 0
 284 191 301 209 322 209 c 0
 343 209 360 191 360 170 c 0
 360 149 343 132 322 132 c 0
 301 132 284 149 284 170 c 0
157 170 m 0
 157 152 172 137 190 137 c 0
 208 137 223 152 223 170 c 0
 223 188 208 204 190 204 c 0
 172 204 157 188 157 170 c 0
152 170 m 0
 152 191 169 209 190 209 c 0
 211 209 228 191 228 170 c 0
 228 149 211 132 190 132 c 0
 169 132 152 149 152 170 c 0
289 302 m 0
 289 284 304 269 322 269 c 0
 340 269 355 284 355 302 c 0
 355 320 340 335 322 335 c 0
 304 335 289 320 289 302 c 0
284 302 m 0
 284 323 301 340 322 340 c 0
 343 340 360 323 360 302 c 0
 360 281 343 264 322 264 c 0
 301 264 284 281 284 302 c 0
152 302 m 0
 152 323 169 340 190 340 c 0
 211 340 228 323 228 302 c 0
 228 281 211 264 190 264 c 0
 169 264 152 281 152 302 c 0
EndSplineSet
Validated: 1
EndChar

StartChar: a
Encoding: 97 97 2
Width: 512
VWidth: 0
Flags: HW
LayerCount: 2
Fore
SplineSet
289 38 m 0
 289 20 304 5 322 5 c 0
 340 5 355 20 355 38 c 0
 355 56 340 71 322 71 c 0
 304 71 289 56 289 38 c 0
284 38 m 0
 284 59 301 76 322 76 c 0
 343 76 360 59 360 38 c 0
 360 17 343 0 322 0 c 0
 301 0 284 17 284 38 c 0
157 38 m 0
 157 20 172 5 190 5 c 0
 208 5 223 20 223 38 c 0
 223 56 208 71 190 71 c 0
 172 71 157 56 157 38 c 0
152 38 m 0
 152 59 169 76 190 76 c 0
 211 76 228 59 228 38 c 0
 228 17 211 0 190 0 c 0
 169 0 152 17 152 38 c 0
289 170 m 0
 289 152 304 137 322 137 c 0
 340 137 355 152 355 170 c 0
 355 188 340 204 322 204 c 0
 304 204 289 188 289 170 c 0
284 170 m 0
 284 191 301 209 322 209 c 0
 343 209 360 191 360 170 c 0
 360 149 343 132 322 132 c 0
 301 132 284 149 284 170 c 0
157 170 m 0
 157 152 172 137 190 137 c 0
 208 137 223 152 223 170 c 0
 223 188 208 204 190 204 c 0
 172 204 157 188 157 170 c 0
152 170 m 0
 152 191 169 209 190 209 c 0
 211 209 228 191 228 170 c 0
 228 149 211 132 190 132 c 0
 169 132 152 149 152 170 c 0
289 302 m 0
 289 284 304 269 322 269 c 0
 340 269 355 284 355 302 c 0
 355 320 340 335 322 335 c 0
 304 335 289 320 289 302 c 0
284 302 m 0
 284 323 301 340 322 340 c 0
 343 340 360 323 360 302 c 0
 360 281 343 264 322 264 c 0
 301 264 284 281 284 302 c 0
152 302 m 0
 152 323 169 340 190 340 c 0
 211 340 228 323 228 302 c 0
 228 281 211 264 190 264 c 0
 169 264 152 281 152 302 c 0
EndSplineSet
Validated: 1
EndChar

StartChar: B
Encoding: 66 66 3
Width: 512
VWidth: 0
Flags: HW
LayerCount: 2
Fore
SplineSet
289 38 m 0
 289 20 304 5 322 5 c 0
 340 5 355 20 355 38 c 0
 355 56 340 71 322 71 c 0
 304 71 289 56 289 38 c 0
284 38 m 0
 284 59 301 76 322 76 c 0
 343 76 360 59 360 38 c 0
 360 17 343 0 322 0 c 0
 301 0 284 17 284 38 c 0
157 38 m 0
 157 20 172 5 190 5 c 0
 208 5 223 20 223 38 c 0
 223 56 208 71 190 71 c 0
 172 71 157 56 157 38 c 0
152 38 m 0
 152 59 169 76 190 76 c 0
 211 76 228 59 228 38 c 0
 228 17 211 0 190 0 c 0
 169 0 152 17 152 38 c 0
289 170 m 0
 289 152 304 137 322 137 c 0
 340 137 355 152 355 170 c 0
 355 188 340 204 322 204 c 0
 304 204 289 188 289 170 c 0
284 170 m 0
 284 191 301 209 322 209 c 0
 343 209 360 191 360 170 c 0
 360 149 343 132 322 132 c 0
 301 132 284 149 284 170 c 0
152 170 m 0
 152 191 169 209 190 209 c 0
 211 209 228 191 228 170 c 0
 228 149 211 132 190 132 c 0
 169 132 152 149 152 170 c 0
289 302 m 0
 289 284 304 269 322 269 c 0
 340 269 355 284 355 302 c 0
 355 320 340 335 322 335 c 0
 304 335 289 320 289 302 c 0
284 302 m 0
 284 323 301 340 322 340 c 0
 343 340 360 323 360 302 c 0
 360 281 343 264 322 264 c 0
 301 264 284 281 284 302 c 0
152 302 m 0
 152 323 169 340 190 340 c 0
 211 340 228 323 228 302 c 0
 228 281 211 264 190 264 c 0
 169 264 152 281 152 302 c 0
EndSplineSet
Validated: 1
EndChar

StartChar: b
Encoding: 98 98 4
Width: 512
VWidth: 0
Flags: HW
LayerCount: 2
Fore
SplineSet
289 38 m 0
 289 20 304 5 322 5 c 0
 340 5 355 20 355 38 c 0
 355 56 340 71 322 71 c 0
 304 71 289 56 289 38 c 0
284 38 m 0
 284 59 301 76 322 76 c 0
 343 76 360 59 360 38 c 0
 360 17 343 0 322 0 c 0
 301 0 284 17 284 38 c 0
157 38 m 0
 157 20 172 5 190 5 c 0
 208 5 223 20 223 38 c 0
 223 56 208 71 190 71 c 0
 172 71 157 56 157 38 c 0
152 38 m 0
 152 59 169 76 190 76 c 0
 211 76 228 59 228 38 c 0
 228 17 211 0 190 0 c 0
 169 0 152 17 152 38 c 0
289 170 m 0
 289 152 304 137 322 137 c 0
 340 137 355 152 355 170 c 0
 355 188 340 204 322 204 c 0
 304 204 289 188 289 170 c 0
284 170 m 0
 284 191 301 209 322 209 c 0
 343 209 360 191 360 170 c 0
 360 149 343 132 322 132 c 0
 301 132 284 149 284 170 c 0
152 170 m 0
 152 191 169 209 190 209 c 0
 211 209 228 191 228 170 c 0
 228 149 211 132 190 132 c 0
 169 132 152 149 152 170 c 0
289 302 m 0
 289 284 304 269 322 269 c 0
 340 269 355 284 355 302 c 0
 355 320 340 335 322 335 c 0
 304 335 289 320 289 302 c 0
284 302 m 0
 284 323 301 340 322 340 c 0
 343 340 360 323 360 302 c 0
 360 281 343 264 322 264 c 0
 301 264 284 281 284 302 c 0
152 302 m 0
 152 323 169 340 190 340 c 0
 211 340 228 323 228 302 c 0
 228 281 211 264 190 264 c 0
 169 264 152 281 152 302 c 0
EndSplineSet
Validated: 1
EndChar

StartChar: C
Encoding: 67 67 5
Width: 512
VWidth: 0
Flags: HW
LayerCount: 2
Fore
SplineSet
289 38 m 0
 289 20 304 5 322 5 c 0
 340 5 355 20 355 38 c 0
 355 56 340 71 322 71 c 0
 304 71 289 56 289 38 c 0
284 38 m 0
 284 59 301 76 322 76 c 0
 343 76 360 59 360 38 c 0
 360 17 343 0 322 0 c 0
 301 0 284 17 284 38 c 0
157 38 m 0
 157 20 172 5 190 5 c 0
 208 5 223 20 223 38 c 0
 223 56 208 71 190 71 c 0
 172 71 157 56 157 38 c 0
152 38 m 0
 152 59 169 76 190 76 c 0
 211 76 228 59 228 38 c 0
 228 17 211 0 190 0 c 0
 169 0 152 17 152 38 c 0
289 170 m 0
 289 152 304 137 322 137 c 0
 340 137 355 152 355 170 c 0
 355 188 340 204 322 204 c 0
 304 204 289 188 289 170 c 0
284 170 m 0
 284 191 301 209 322 209 c 0
 343 209 360 191 360 170 c 0
 360 149 343 132 322 132 c 0
 301 132 284 149 284 170 c 0
157 170 m 0
 157 152 172 137 190 137 c 0
 208 137 223 152 223 170 c 0
 223 188 208 204 190 204 c 0
 172 204 157 188 157 170 c 0
152 170 m 0
 152 191 169 209 190 209 c 0
 211 209 228 191 228 170 c 0
 228 149 211 132 190 132 c 0
 169 132 152 149 152 170 c 0
284 302 m 0
 284 323 301 340 322 340 c 0
 343 340 360 323 360 302 c 0
 360 281 343 264 322 264 c 0
 301 264 284 281 284 302 c 0
152 302 m 0
 152 323 169 340 190 340 c 0
 211 340 228 323 228 302 c 0
 228 281 211 264 190 264 c 0
 169 264 152 281 152 302 c 0
EndSplineSet
Validated: 1
EndChar

StartChar: c
Encoding: 99 99 6
Width: 512
VWidth: 0
Flags: HW
LayerCount: 2
Fore
SplineSet
289 38 m 0
 289 20 304 5 322 5 c 0
 340 5 355 20 355 38 c 0
 355 56 340 71 322 71 c 0
 304 71 289 56 289 38 c 0
284 38 m 0
 284 59 301 76 322 76 c 0
 343 76 360 59 360 38 c 0
 360 17 343 0 322 0 c 0
 301 0 284 17 284 38 c 0
157 38 m 0
 157 20 172 5 190 5 c 0
 208 5 223 20 223 38 c 0
 223 56 208 71 190 71 c 0
 172 71 157 56 157 38 c 0
152 38 m 0
 152 59 169 76 190 76 c 0
 211 76 228 59 228 38 c 0
 228 17 211 0 190 0 c 0
 169 0 152 17 152 38 c 0
289 170 m 0
 289 152 304 137 322 137 c 0
 340 137 355 152 355 170 c 0
 355 188 340 204 322 204 c 0
 304 204 289 188 289 170 c 0
284 170 m 0
 284 191 301 209 322 209 c 0
 343 209 360 191 360 170 c 0
 360 149 343 132 322 132 c 0
 301 132 284 149 284 170 c 0
157 170 m 0
 157 152 172 137 190 137 c 0
 208 137 223 152 223 170 c 0
 223 188 208 204 190 204 c 0
 172 204 157 188 157 170 c 0
152 170 m 0
 152 191 169 209 190 209 c 0
 211 209 228 191 228 170 c 0
 228 149 211 132 190 132 c 0
 169 132 152 149 152 170 c 0
284 302 m 0
 284 323 301 340 322 340 c 0
 343 340 360 323 360 302 c 0
 360 281 343 264 322 264 c 0
 301 264 284 281 284 302 c 0
152 302 m 0
 152 323 169 340 190 340 c 0
 211 340 228 323 228 302 c 0
 228 281 211 264 190 264 c 0
 169 264 152 281 152 302 c 0
EndSplineSet
Validated: 1
EndChar

StartChar: D
Encoding: 68 68 7
Width: 512
VWidth: 0
Flags: HW
LayerCount: 2
Fore
SplineSet
289 38 m 0
 289 20 304 5 322 5 c 0
 340 5 355 20 355 38 c 0
 355 56 340 71 322 71 c 0
 304 71 289 56 289 38 c 0
284 38 m 0
 284 59 301 76 322 76 c 0
 343 76 360 59 360 38 c 0
 360 17 343 0 322 0 c 0
 301 0 284 17 284 38 c 0
157 38 m 0
 157 20 172 5 190 5 c 0
 208 5 223 20 223 38 c 0
 223 56 208 71 190 71 c 0
 172 71 157 56 157 38 c 0
152 38 m 0
 152 59 169 76 190 76 c 0
 211 76 228 59 228 38 c 0
 228 17 211 0 190 0 c 0
 169 0 152 17 152 38 c 0
284 170 m 0
 284 191 301 209 322 209 c 0
 343 209 360 191 360 170 c 0
 360 149 343 132 322 132 c 0
 301 132 284 149 284 170 c 0
157 170 m 0
 157 152 172 137 190 137 c 0
 208 137 223 152 223 170 c 0
 223 188 208 204 190 204 c 0
 172 204 157 188 157 170 c 0
152 170 m 0
 152 191 169 209 190 209 c 0
 211 209 228 191 228 170 c 0
 228 149 211 132 190 132 c 0
 169 132 152 149 152 170 c 0
284 302 m 0
 284 323 301 340 322 340 c 0
 343 340 360 323 360 302 c 0
 360 281 343 264 322 264 c 0
 301 264 284 281 284 302 c 0
152 302 m 0
 152 323 169 340 190 340 c 0
 211 340 228 323 228 302 c 0
 228 281 211 264 190 264 c 0
 169 264 152 281 152 302 c 0
EndSplineSet
Validated: 1
EndChar

StartChar: d
Encoding: 100 100 8
Width: 512
VWidth: 0
Flags: HW
LayerCount: 2
Fore
SplineSet
289 38 m 0
 289 20 304 5 322 5 c 0
 340 5 355 20 355 38 c 0
 355 56 340 71 322 71 c 0
 304 71 289 56 289 38 c 0
284 38 m 0
 284 59 301 76 322 76 c 0
 343 76 360 59 360 38 c 0
 360 17 343 0 322 0 c 0
 301 0 284 17 284 38 c 0
157 38 m 0
 157 20 172 5 190 5 c 0
 208 5 223 20 223 38 c 0
 223 56 208 71 190 71 c 0
 172 71 157 56 157 38 c 0
152 38 m 0
 152 59 169 76 190 76 c 0
 211 76 228 59 228 38 c 0
 228 17 211 0 190 0 c 0
 169 0 152 17 152 38 c 0
284 170 m 0
 284 191 301 209 322 209 c 0
 343 209 360 191 360 170 c 0
 360 149 343 132 322 132 c 0
 301 132 284 149 284 170 c 0
157 170 m 0
 157 152 172 137 190 137 c 0
 208 137 223 152 223 170 c 0
 223 188 208 204 190 204 c 0
 172 204 157 188 157 170 c 0
152 170 m 0
 152 191 169 209 190 209 c 0
 211 209 228 191 228 170 c 0
 228 149 211 132 190 132 c 0
 169 132 152 149 152 170 c 0
284 302 m 0
 284 323 301 340 322 340 c 0
 343 340 360 323 360 302 c 0
 360 281 343 264 322 264 c 0
 301 264 284 281 284 302 c 0
152 302 m 0
 152 323 169 340 190 340 c 0
 211 340 228 323 228 302 c 0
 228 281 211 264 190 264 c 0
 169 264 152 281 152 302 c 0
EndSplineSet
Validated: 1
EndChar

StartChar: E
Encoding: 69 69 9
Width: 512
VWidth: 0
Flags: HW
LayerCount: 2
Fore
SplineSet
289 38 m 0
 289 20 304 5 322 5 c 0
 340 5 355 20 355 38 c 0
 355 56 340 71 322 71 c 0
 304 71 289 56 289 38 c 0
284 38 m 0
 284 59 301 76 322 76 c 0
 343 76 360 59 360 38 c 0
 360 17 343 0 322 0 c 0
 301 0 284 17 284 38 c 0
157 38 m 0
 157 20 172 5 190 5 c 0
 208 5 223 20 223 38 c 0
 223 56 208 71 190 71 c 0
 172 71 157 56 157 38 c 0
152 38 m 0
 152 59 169 76 190 76 c 0
 211 76 228 59 228 38 c 0
 228 17 211 0 190 0 c 0
 169 0 152 17 152 38 c 0
284 170 m 0
 284 191 301 209 322 209 c 0
 343 209 360 191 360 170 c 0
 360 149 343 132 322 132 c 0
 301 132 284 149 284 170 c 0
157 170 m 0
 157 152 172 137 190 137 c 0
 208 137 223 152 223 170 c 0
 223 188 208 204 190 204 c 0
 172 204 157 188 157 170 c 0
152 170 m 0
 152 191 169 209 190 209 c 0
 211 209 228 191 228 170 c 0
 228 149 211 132 190 132 c 0
 169 132 152 149 152 170 c 0
289 302 m 0
 289 284 304 269 322 269 c 0
 340 269 355 284 355 302 c 0
 355 320 340 335 322 335 c 0
 304 335 289 320 289 302 c 0
284 302 m 0
 284 323 301 340 322 340 c 0
 343 340 360 323 360 302 c 0
 360 281 343 264 322 264 c 0
 301 264 284 281 284 302 c 0
152 302 m 0
 152 323 169 340 190 340 c 0
 211 340 228 323 228 302 c 0
 228 281 211 264 190 264 c 0
 169 264 152 281 152 302 c 0
EndSplineSet
Validated: 1
EndChar

StartChar: e
Encoding: 101 101 10
Width: 512
VWidth: 0
Flags: HW
LayerCount: 2
Fore
SplineSet
289 38 m 0
 289 20 304 5 322 5 c 0
 340 5 355 20 355 38 c 0
 355 56 340 71 322 71 c 0
 304 71 289 56 289 38 c 0
284 38 m 0
 284 59 301 76 322 76 c 0
 343 76 360 59 360 38 c 0
 360 17 343 0 322 0 c 0
 301 0 284 17 284 38 c 0
157 38 m 0
 157 20 172 5 190 5 c 0
 208 5 223 20 223 38 c 0
 223 56 208 71 190 71 c 0
 172 71 157 56 157 38 c 0
152 38 m 0
 152 59 169 76 190 76 c 0
 211 76 228 59 228 38 c 0
 228 17 211 0 190 0 c 0
 169 0 152 17 152 38 c 0
284 170 m 0
 284 191 301 209 322 209 c 0
 343 209 360 191 360 170 c 0
 360 149 343 132 322 132 c 0
 301 132 284 149 284 170 c 0
157 170 m 0
 157 152 172 137 190 137 c 0
 208 137 223 152 223 170 c 0
 223 188 208 204 190 204 c 0
 172 204 157 188 157 170 c 0
152 170 m 0
 152 191 169 209 190 209 c 0
 211 209 228 191 228 170 c 0
 228 149 211 132 190 132 c 0
 169 132 152 149 152 170 c 0
289 302 m 0
 289 284 304 269 322 269 c 0
 340 269 355 284 355 302 c 0
 355 320 340 335 322 335 c 0
 304 335 289 320 289 302 c 0
284 302 m 0
 284 323 301 340 322 340 c 0
 343 340 360 323 360 302 c 0
 360 281 343 264 322 264 c 0
 301 264 284 281 284 302 c 0
152 302 m 0
 152 323 169 340 190 340 c 0
 211 340 228 323 228 302 c 0
 228 281 211 264 190 264 c 0
 169 264 152 281 152 302 c 0
EndSplineSet
Validated: 1
EndChar

StartChar: F
Encoding: 70 70 11
Width: 512
VWidth: 0
Flags: HW
LayerCount: 2
Fore
SplineSet
289 38 m 0
 289 20 304 5 322 5 c 0
 340 5 355 20 355 38 c 0
 355 56 340 71 322 71 c 0
 304 71 289 56 289 38 c 0
284 38 m 0
 284 59 301 76 322 76 c 0
 343 76 360 59 360 38 c 0
 360 17 343 0 322 0 c 0
 301 0 284 17 284 38 c 0
157 38 m 0
 157 20 172 5 190 5 c 0
 208 5 223 20 223 38 c 0
 223 56 208 71 190 71 c 0
 172 71 157 56 157 38 c 0
152 38 m 0
 152 59 169 76 190 76 c 0
 211 76 228 59 228 38 c 0
 228 17 211 0 190 0 c 0
 169 0 152 17 152 38 c 0
289 170 m 0
 289 152 304 137 322 137 c 0
 340 137 355 152 355 170 c 0
 355 188 340 204 322 204 c 0
 304 204 289 188 289 170 c 0
284 170 m 0
 284 191 301 209 322 209 c 0
 343 209 360 191 360 170 c 0
 360 149 343 132 322 132 c 0
 301 132 284 149 284 170 c 0
152 170 m 0
 152 191 169 209 190 209 c 0
 211 209 228 191 228 170 c 0
 228 149 211 132 190 132 c 0
 169 132 152 149 152 170 c 0
284 302 m 0
 284 323 301 340 322 340 c 0
 343 340 360 323 360 302 c 0
 360 281 343 264 322 264 c 0
 301 264 284 281 284 302 c 0
152 302 m 0
 152 323 169 340 190 340 c 0
 211 340 228 323 228 302 c 0
 228 281 211 264 190 264 c 0
 169 264 152 281 152 302 c 0
EndSplineSet
Validated: 1
EndChar

StartChar: f
Encoding: 102 102 12
Width: 512
VWidth: 0
Flags: HW
LayerCount: 2
Fore
SplineSet
289 38 m 0
 289 20 304 5 322 5 c 0
 340 5 355 20 355 38 c 0
 355 56 340 71 322 71 c 0
 304 71 289 56 289 38 c 0
284 38 m 0
 284 59 301 76 322 76 c 0
 343 76 360 59 360 38 c 0
 360 17 343 0 322 0 c 0
 301 0 284 17 284 38 c 0
157 38 m 0
 157 20 172 5 190 5 c 0
 208 5 223 20 223 38 c 0
 223 56 208 71 190 71 c 0
 172 71 157 56 157 38 c 0
152 38 m 0
 152 59 169 76 190 76 c 0
 211 76 228 59 228 38 c 0
 228 17 211 0 190 0 c 0
 169 0 152 17 152 38 c 0
289 170 m 0
 289 152 304 137 322 137 c 0
 340 137 355 152 355 170 c 0
 355 188 340 204 322 204 c 0
 304 204 289 188 289 170 c 0
284 170 m 0
 284 191 301 209 322 209 c 0
 343 209 360 191 360 170 c 0
 360 149 343 132 322 132 c 0
 301 132 284 149 284 170 c 0
152 170 m 0
 152 191 169 209 190 209 c 0
 211 209 228 191 228 170 c 0
 228 149 211 132 190 132 c 0
 169 132 152 149 152 170 c 0
284 302 m 0
 284 323 301 340 322 340 c 0
 343 340 360 323 360 302 c 0
 360 281 343 264 322 264 c 0
 301 264 284 281 284 302 c 0
152 302 m 0
 152 323 169 340 190 340 c 0
 211 340 228 323 228 302 c 0
 228 281 211 264 190 264 c 0
 169 264 152 281 152 302 c 0
EndSplineSet
Validated: 1
EndChar

StartChar: G
Encoding: 71 71 13
Width: 512
VWidth: 0
Flags: HW
LayerCount: 2
Fore
SplineSet
289 38 m 0
 289 20 304 5 322 5 c 0
 340 5 355 20 355 38 c 0
 355 56 340 71 322 71 c 0
 304 71 289 56 289 38 c 0
284 38 m 0
 284 59 301 76 322 76 c 0
 343 76 360 59 360 38 c 0
 360 17 343 0 322 0 c 0
 301 0 284 17 284 38 c 0
157 38 m 0
 157 20 172 5 190 5 c 0
 208 5 223 20 223 38 c 0
 223 56 208 71 190 71 c 0
 172 71 157 56 157 38 c 0
152 38 m 0
 152 59 169 76 190 76 c 0
 211 76 228 59 228 38 c 0
 228 17 211 0 190 0 c 0
 169 0 152 17 152 38 c 0
284 170 m 0
 284 191 301 209 322 209 c 0
 343 209 360 191 360 170 c 0
 360 149 343 132 322 132 c 0
 301 132 284 149 284 170 c 0
152 170 m 0
 152 191 169 209 190 209 c 0
 211 209 228 191 228 170 c 0
 228 149 211 132 190 132 c 0
 169 132 152 149 152 170 c 0
284 302 m 0
 284 323 301 340 322 340 c 0
 343 340 360 323 360 302 c 0
 360 281 343 264 322 264 c 0
 301 264 284 281 284 302 c 0
152 302 m 0
 152 323 169 340 190 340 c 0
 211 340 228 323 228 302 c 0
 228 281 211 264 190 264 c 0
 169 264 152 281 152 302 c 0
EndSplineSet
Validated: 1
EndChar

StartChar: g
Encoding: 103 103 14
Width: 512
VWidth: 0
Flags: HW
LayerCount: 2
Fore
SplineSet
289 38 m 0
 289 20 304 5 322 5 c 0
 340 5 355 20 355 38 c 0
 355 56 340 71 322 71 c 0
 304 71 289 56 289 38 c 0
284 38 m 0
 284 59 301 76 322 76 c 0
 343 76 360 59 360 38 c 0
 360 17 343 0 322 0 c 0
 301 0 284 17 284 38 c 0
157 38 m 0
 157 20 172 5 190 5 c 0
 208 5 223 20 223 38 c 0
 223 56 208 71 190 71 c 0
 172 71 157 56 157 38 c 0
152 38 m 0
 152 59 169 76 190 76 c 0
 211 76 228 59 228 38 c 0
 228 17 211 0 190 0 c 0
 169 0 152 17 152 38 c 0
284 170 m 0
 284 191 301 209 322 209 c 0
 343 209 360 191 360 170 c 0
 360 149 343 132 322 132 c 0
 301 132 284 149 284 170 c 0
152 170 m 0
 152 191 169 209 190 209 c 0
 211 209 228 191 228 170 c 0
 228 149 211 132 190 132 c 0
 169 132 152 149 152 170 c 0
284 302 m 0
 284 323 301 340 322 340 c 0
 343 340 360 323 360 302 c 0
 360 281 343 264 322 264 c 0
 301 264 284 281 284 302 c 0
152 302 m 0
 152 323 169 340 190 340 c 0
 211 340 228 323 228 302 c 0
 228 281 211 264 190 264 c 0
 169 264 152 281 152 302 c 0
EndSplineSet
Validated: 1
EndChar

StartChar: H
Encoding: 72 72 15
Width: 512
VWidth: 0
Flags: HW
LayerCount: 2
Fore
SplineSet
289 38 m 0
 289 20 304 5 322 5 c 0
 340 5 355 20 355 38 c 0
 355 56 340 71 322 71 c 0
 304 71 289 56 289 38 c 0
284 38 m 0
 284 59 301 76 322 76 c 0
 343 76 360 59 360 38 c 0
 360 17 343 0 322 0 c 0
 301 0 284 17 284 38 c 0
157 38 m 0
 157 20 172 5 190 5 c 0
 208 5 223 20 223 38 c 0
 223 56 208 71 190 71 c 0
 172 71 157 56 157 38 c 0
152 38 m 0
 152 59 169 76 190 76 c 0
 211 76 228 59 228 38 c 0
 228 17 211 0 190 0 c 0
 169 0 152 17 152 38 c 0
284 170 m 0
 284 191 301 209 322 209 c 0
 343 209 360 191 360 170 c 0
 360 149 343 132 322 132 c 0
 301 132 284 149 284 170 c 0
152 170 m 0
 152 191 169 209 190 209 c 0
 211 209 228 191 228 170 c 0
 228 149 211 132 190 132 c 0
 169 132 152 149 152 170 c 0
289 302 m 0
 289 284 304 269 322 269 c 0
 340 269 355 284 355 302 c 0
 355 320 340 335 322 335 c 0
 304 335 289 320 289 302 c 0
284 302 m 0
 284 323 301 340 322 340 c 0
 343 340 360 323 360 302 c 0
 360 281 343 264 322 264 c 0
 301 264 284 281 284 302 c 0
152 302 m 0
 152 323 169 340 190 340 c 0
 211 340 228 323 228 302 c 0
 228 281 211 264 190 264 c 0
 169 264 152 281 152 302 c 0
EndSplineSet
Validated: 1
EndChar

StartChar: h
Encoding: 104 104 16
Width: 512
VWidth: 0
Flags: HW
LayerCount: 2
Fore
SplineSet
289 38 m 0
 289 20 304 5 322 5 c 0
 340 5 355 20 355 38 c 0
 355 56 340 71 322 71 c 0
 304 71 289 56 289 38 c 0
284 38 m 0
 284 59 301 76 322 76 c 0
 343 76 360 59 360 38 c 0
 360 17 343 0 322 0 c 0
 301 0 284 17 284 38 c 0
157 38 m 0
 157 20 172 5 190 5 c 0
 208 5 223 20 223 38 c 0
 223 56 208 71 190 71 c 0
 172 71 157 56 157 38 c 0
152 38 m 0
 152 59 169 76 190 76 c 0
 211 76 228 59 228 38 c 0
 228 17 211 0 190 0 c 0
 169 0 152 17 152 38 c 0
284 170 m 0
 284 191 301 209 322 209 c 0
 343 209 360 191 360 170 c 0
 360 149 343 132 322 132 c 0
 301 132 284 149 284 170 c 0
152 170 m 0
 152 191 169 209 190 209 c 0
 211 209 228 191 228 170 c 0
 228 149 211 132 190 132 c 0
 169 132 152 149 152 170 c 0
289 302 m 0
 289 284 304 269 322 269 c 0
 340 269 355 284 355 302 c 0
 355 320 340 335 322 335 c 0
 304 335 289 320 289 302 c 0
284 302 m 0
 284 323 301 340 322 340 c 0
 343 340 360 323 360 302 c 0
 360 281 343 264 322 264 c 0
 301 264 284 281 284 302 c 0
152 302 m 0
 152 323 169 340 190 340 c 0
 211 340 228 323 228 302 c 0
 228 281 211 264 190 264 c 0
 169 264 152 281 152 302 c 0
EndSplineSet
Validated: 1
EndChar

StartChar: I
Encoding: 73 73 17
Width: 512
VWidth: 0
Flags: HW
LayerCount: 2
Fore
SplineSet
289 38 m 0
 289 20 304 5 322 5 c 0
 340 5 355 20 355 38 c 0
 355 56 340 71 322 71 c 0
 304 71 289 56 289 38 c 0
284 38 m 0
 284 59 301 76 322 76 c 0
 343 76 360 59 360 38 c 0
 360 17 343 0 322 0 c 0
 301 0 284 17 284 38 c 0
157 38 m 0
 157 20 172 5 190 5 c 0
 208 5 223 20 223 38 c 0
 223 56 208 71 190 71 c 0
 172 71 157 56 157 38 c 0
152 38 m 0
 152 59 169 76 190 76 c 0
 211 76 228 59 228 38 c 0
 228 17 211 0 190 0 c 0
 169 0 152 17 152 38 c 0
289 170 m 0
 289 152 304 137 322 137 c 0
 340 137 355 152 355 170 c 0
 355 188 340 204 322 204 c 0
 304 204 289 188 289 170 c 0
284 170 m 0
 284 191 301 209 322 209 c 0
 343 209 360 191 360 170 c 0
 360 149 343 132 322 132 c 0
 301 132 284 149 284 170 c 0
152 170 m 0
 152 191 169 209 190 209 c 0
 211 209 228 191 228 170 c 0
 228 149 211 132 190 132 c 0
 169 132 152 149 152 170 c 0
284 302 m 0
 284 323 301 340 322 340 c 0
 343 340 360 323 360 302 c 0
 360 281 343 264 322 264 c 0
 301 264 284 281 284 302 c 0
157 302 m 0
 157 284 172 269 190 269 c 0
 208 269 223 284 223 302 c 0
 223 320 208 335 190 335 c 0
 172 335 157 320 157 302 c 0
152 302 m 0
 152 323 169 340 190 340 c 0
 211 340 228 323 228 302 c 0
 228 281 211 264 190 264 c 0
 169 264 152 281 152 302 c 0
EndSplineSet
Validated: 1
EndChar

StartChar: i
Encoding: 105 105 18
Width: 512
VWidth: 0
Flags: HW
LayerCount: 2
Fore
SplineSet
289 38 m 0
 289 20 304 5 322 5 c 0
 340 5 355 20 355 38 c 0
 355 56 340 71 322 71 c 0
 304 71 289 56 289 38 c 0
284 38 m 0
 284 59 301 76 322 76 c 0
 343 76 360 59 360 38 c 0
 360 17 343 0 322 0 c 0
 301 0 284 17 284 38 c 0
157 38 m 0
 157 20 172 5 190 5 c 0
 208 5 223 20 223 38 c 0
 223 56 208 71 190 71 c 0
 172 71 157 56 157 38 c 0
152 38 m 0
 152 59 169 76 190 76 c 0
 211 76 228 59 228 38 c 0
 228 17 211 0 190 0 c 0
 169 0 152 17 152 38 c 0
289 170 m 0
 289 152 304 137 322 137 c 0
 340 137 355 152 355 170 c 0
 355 188 340 204 322 204 c 0
 304 204 289 188 289 170 c 0
284 170 m 0
 284 191 301 209 322 209 c 0
 343 209 360 191 360 170 c 0
 360 149 343 132 322 132 c 0
 301 132 284 149 284 170 c 0
152 170 m 0
 152 191 169 209 190 209 c 0
 211 209 228 191 228 170 c 0
 228 149 211 132 190 132 c 0
 169 132 152 149 152 170 c 0
284 302 m 0
 284 323 301 340 322 340 c 0
 343 340 360 323 360 302 c 0
 360 281 343 264 322 264 c 0
 301 264 284 281 284 302 c 0
157 302 m 0
 157 284 172 269 190 269 c 0
 208 269 223 284 223 302 c 0
 223 320 208 335 190 335 c 0
 172 335 157 320 157 302 c 0
152 302 m 0
 152 323 169 340 190 340 c 0
 211 340 228 323 228 302 c 0
 228 281 211 264 190 264 c 0
 169 264 152 281 152 302 c 0
EndSplineSet
Validated: 1
EndChar

StartChar: J
Encoding: 74 74 19
Width: 512
VWidth: 0
Flags: HW
LayerCount: 2
Fore
SplineSet
289 38 m 0
 289 20 304 5 322 5 c 0
 340 5 355 20 355 38 c 0
 355 56 340 71 322 71 c 0
 304 71 289 56 289 38 c 0
284 38 m 0
 284 59 301 76 322 76 c 0
 343 76 360 59 360 38 c 0
 360 17 343 0 322 0 c 0
 301 0 284 17 284 38 c 0
157 38 m 0
 157 20 172 5 190 5 c 0
 208 5 223 20 223 38 c 0
 223 56 208 71 190 71 c 0
 172 71 157 56 157 38 c 0
152 38 m 0
 152 59 169 76 190 76 c 0
 211 76 228 59 228 38 c 0
 228 17 211 0 190 0 c 0
 169 0 152 17 152 38 c 0
284 170 m 0
 284 191 301 209 322 209 c 0
 343 209 360 191 360 170 c 0
 360 149 343 132 322 132 c 0
 301 132 284 149 284 170 c 0
152 170 m 0
 152 191 169 209 190 209 c 0
 211 209 228 191 228 170 c 0
 228 149 211 132 190 132 c 0
 169 132 152 149 152 170 c 0
284 302 m 0
 284 323 301 340 322 340 c 0
 343 340 360 323 360 302 c 0
 360 281 343 264 322 264 c 0
 301 264 284 281 284 302 c 0
157 302 m 0
 157 284 172 269 190 269 c 0
 208 269 223 284 223 302 c 0
 223 320 208 335 190 335 c 0
 172 335 157 320 157 302 c 0
152 302 m 0
 152 323 169 340 190 340 c 0
 211 340 228 323 228 302 c 0
 228 281 211 264 190 264 c 0
 169 264 152 281 152 302 c 0
EndSplineSet
Validated: 1
EndChar

StartChar: j
Encoding: 106 106 20
Width: 512
VWidth: 0
Flags: HW
LayerCount: 2
Fore
SplineSet
289 38 m 0
 289 20 304 5 322 5 c 0
 340 5 355 20 355 38 c 0
 355 56 340 71 322 71 c 0
 304 71 289 56 289 38 c 0
284 38 m 0
 284 59 301 76 322 76 c 0
 343 76 360 59 360 38 c 0
 360 17 343 0 322 0 c 0
 301 0 284 17 284 38 c 0
157 38 m 0
 157 20 172 5 190 5 c 0
 208 5 223 20 223 38 c 0
 223 56 208 71 190 71 c 0
 172 71 157 56 157 38 c 0
152 38 m 0
 152 59 169 76 190 76 c 0
 211 76 228 59 228 38 c 0
 228 17 211 0 190 0 c 0
 169 0 152 17 152 38 c 0
284 170 m 0
 284 191 301 209 322 209 c 0
 343 209 360 191 360 170 c 0
 360 149 343 132 322 132 c 0
 301 132 284 149 284 170 c 0
152 170 m 0
 152 191 169 209 190 209 c 0
 211 209 228 191 228 170 c 0
 228 149 211 132 190 132 c 0
 169 132 152 149 152 170 c 0
284 302 m 0
 284 323 301 340 322 340 c 0
 343 340 360 323 360 302 c 0
 360 281 343 264 322 264 c 0
 301 264 284 281 284 302 c 0
157 302 m 0
 157 284 172 269 190 269 c 0
 208 269 223 284 223 302 c 0
 223 320 208 335 190 335 c 0
 172 335 157 320 157 302 c 0
152 302 m 0
 152 323 169 340 190 340 c 0
 211 340 228 323 228 302 c 0
 228 281 211 264 190 264 c 0
 169 264 152 281 152 302 c 0
EndSplineSet
Validated: 1
EndChar

StartChar: K
Encoding: 75 75 21
Width: 512
VWidth: 0
Flags: HW
LayerCount: 2
Fore
SplineSet
289 38 m 0
 289 20 304 5 322 5 c 0
 340 5 355 20 355 38 c 0
 355 56 340 71 322 71 c 0
 304 71 289 56 289 38 c 0
284 38 m 0
 284 59 301 76 322 76 c 0
 343 76 360 59 360 38 c 0
 360 17 343 0 322 0 c 0
 301 0 284 17 284 38 c 0
152 38 m 0
 152 59 169 76 190 76 c 0
 211 76 228 59 228 38 c 0
 228 17 211 0 190 0 c 0
 169 0 152 17 152 38 c 0
289 170 m 0
 289 152 304 137 322 137 c 0
 340 137 355 152 355 170 c 0
 355 188 340 204 322 204 c 0
 304 204 289 188 289 170 c 0
284 170 m 0
 284 191 301 209 322 209 c 0
 343 209 360 191 360 170 c 0
 360 149 343 132 322 132 c 0
 301 132 284 149 284 170 c 0
157 170 m 0
 157 152 172 137 190 137 c 0
 208 137 223 152 223 170 c 0
 223 188 208 204 190 204 c 0
 172 204 157 188 157 170 c 0
152 170 m 0
 152 191 169 209 190 209 c 0
 211 209 228 191 228 170 c 0
 228 149 211 132 190 132 c 0
 169 132 152 149 152 170 c 0
289 302 m 0
 289 284 304 269 322 269 c 0
 340 269 355 284 355 302 c 0
 355 320 340 335 322 335 c 0
 304 335 289 320 289 302 c 0
284 302 m 0
 284 323 301 340 322 340 c 0
 343 340 360 323 360 302 c 0
 360 281 343 264 322 264 c 0
 301 264 284 281 284 302 c 0
152 302 m 0
 152 323 169 340 190 340 c 0
 211 340 228 323 228 302 c 0
 228 281 211 264 190 264 c 0
 169 264 152 281 152 302 c 0
EndSplineSet
Validated: 1
EndChar

StartChar: k
Encoding: 107 107 22
Width: 512
VWidth: 0
Flags: HW
LayerCount: 2
Fore
SplineSet
289 38 m 0
 289 20 304 5 322 5 c 0
 340 5 355 20 355 38 c 0
 355 56 340 71 322 71 c 0
 304 71 289 56 289 38 c 0
284 38 m 0
 284 59 301 76 322 76 c 0
 343 76 360 59 360 38 c 0
 360 17 343 0 322 0 c 0
 301 0 284 17 284 38 c 0
152 38 m 0
 152 59 169 76 190 76 c 0
 211 76 228 59 228 38 c 0
 228 17 211 0 190 0 c 0
 169 0 152 17 152 38 c 0
289 170 m 0
 289 152 304 137 322 137 c 0
 340 137 355 152 355 170 c 0
 355 188 340 204 322 204 c 0
 304 204 289 188 289 170 c 0
284 170 m 0
 284 191 301 209 322 209 c 0
 343 209 360 191 360 170 c 0
 360 149 343 132 322 132 c 0
 301 132 284 149 284 170 c 0
157 170 m 0
 157 152 172 137 190 137 c 0
 208 137 223 152 223 170 c 0
 223 188 208 204 190 204 c 0
 172 204 157 188 157 170 c 0
152 170 m 0
 152 191 169 209 190 209 c 0
 211 209 228 191 228 170 c 0
 228 149 211 132 190 132 c 0
 169 132 152 149 152 170 c 0
289 302 m 0
 289 284 304 269 322 269 c 0
 340 269 355 284 355 302 c 0
 355 320 340 335 322 335 c 0
 304 335 289 320 289 302 c 0
284 302 m 0
 284 323 301 340 322 340 c 0
 343 340 360 323 360 302 c 0
 360 281 343 264 322 264 c 0
 301 264 284 281 284 302 c 0
152 302 m 0
 152 323 169 340 190 340 c 0
 211 340 228 323 228 302 c 0
 228 281 211 264 190 264 c 0
 169 264 152 281 152 302 c 0
EndSplineSet
Validated: 1
EndChar

StartChar: L
Encoding: 76 76 23
Width: 512
VWidth: 0
Flags: HW
LayerCount: 2
Fore
SplineSet
289 38 m 0
 289 20 304 5 322 5 c 0
 340 5 355 20 355 38 c 0
 355 56 340 71 322 71 c 0
 304 71 289 56 289 38 c 0
284 38 m 0
 284 59 301 76 322 76 c 0
 343 76 360 59 360 38 c 0
 360 17 343 0 322 0 c 0
 301 0 284 17 284 38 c 0
152 38 m 0
 152 59 169 76 190 76 c 0
 211 76 228 59 228 38 c 0
 228 17 211 0 190 0 c 0
 169 0 152 17 152 38 c 0
289 170 m 0
 289 152 304 137 322 137 c 0
 340 137 355 152 355 170 c 0
 355 188 340 204 322 204 c 0
 304 204 289 188 289 170 c 0
284 170 m 0
 284 191 301 209 322 209 c 0
 343 209 360 191 360 170 c 0
 360 149 343 132 322 132 c 0
 301 132 284 149 284 170 c 0
152 170 m 0
 152 191 169 209 190 209 c 0
 211 209 228 191 228 170 c 0
 228 149 211 132 190 132 c 0
 169 132 152 149 152 170 c 0
289 302 m 0
 289 284 304 269 322 269 c 0
 340 269 355 284 355 302 c 0
 355 320 340 335 322 335 c 0
 304 335 289 320 289 302 c 0
284 302 m 0
 284 323 301 340 322 340 c 0
 343 340 360 323 360 302 c 0
 360 281 343 264 322 264 c 0
 301 264 284 281 284 302 c 0
152 302 m 0
 152 323 169 340 190 340 c 0
 211 340 228 323 228 302 c 0
 228 281 211 264 190 264 c 0
 169 264 152 281 152 302 c 0
EndSplineSet
Validated: 1
EndChar

StartChar: l
Encoding: 108 108 24
Width: 512
VWidth: 0
Flags: HW
LayerCount: 2
Fore
SplineSet
289 38 m 0
 289 20 304 5 322 5 c 0
 340 5 355 20 355 38 c 0
 355 56 340 71 322 71 c 0
 304 71 289 56 289 38 c 0
284 38 m 0
 284 59 301 76 322 76 c 0
 343 76 360 59 360 38 c 0
 360 17 343 0 322 0 c 0
 301 0 284 17 284 38 c 0
152 38 m 0
 152 59 169 76 190 76 c 0
 211 76 228 59 228 38 c 0
 228 17 211 0 190 0 c 0
 169 0 152 17 152 38 c 0
289 170 m 0
 289 152 304 137 322 137 c 0
 340 137 355 152 355 170 c 0
 355 188 340 204 322 204 c 0
 304 204 289 188 289 170 c 0
284 170 m 0
 284 191 301 209 322 209 c 0
 343 209 360 191 360 170 c 0
 360 149 343 132 322 132 c 0
 301 132 284 149 284 170 c 0
152 170 m 0
 152 191 169 209 190 209 c 0
 211 209 228 191 228 170 c 0
 228 149 211 132 190 132 c 0
 169 132 152 149 152 170 c 0
289 302 m 0
 289 284 304 269 322 269 c 0
 340 269 355 284 355 302 c 0
 355 320 340 335 322 335 c 0
 304 335 289 320 289 302 c 0
284 302 m 0
 284 323 301 340 322 340 c 0
 343 340 360 323 360 302 c 0
 360 281 343 264 322 264 c 0
 301 264 284 281 284 302 c 0
152 302 m 0
 152 323 169 340 190 340 c 0
 211 340 228 323 228 302 c 0
 228 281 211 264 190 264 c 0
 169 264 152 281 152 302 c 0
EndSplineSet
Validated: 1
EndChar

StartChar: M
Encoding: 77 77 25
Width: 512
VWidth: 0
Flags: HW
LayerCount: 2
Fore
SplineSet
289 38 m 0
 289 20 304 5 322 5 c 0
 340 5 355 20 355 38 c 0
 355 56 340 71 322 71 c 0
 304 71 289 56 289 38 c 0
284 38 m 0
 284 59 301 76 322 76 c 0
 343 76 360 59 360 38 c 0
 360 17 343 0 322 0 c 0
 301 0 284 17 284 38 c 0
152 38 m 0
 152 59 169 76 190 76 c 0
 211 76 228 59 228 38 c 0
 228 17 211 0 190 0 c 0
 169 0 152 17 152 38 c 0
289 170 m 0
 289 152 304 137 322 137 c 0
 340 137 355 152 355 170 c 0
 355 188 340 204 322 204 c 0
 304 204 289 188 289 170 c 0
284 170 m 0
 284 191 301 209 322 209 c 0
 343 209 360 191 360 170 c 0
 360 149 343 132 322 132 c 0
 301 132 284 149 284 170 c 0
157 170 m 0
 157 152 172 137 190 137 c 0
 208 137 223 152 223 170 c 0
 223 188 208 204 190 204 c 0
 172 204 157 188 157 170 c 0
152 170 m 0
 152 191 169 209 190 209 c 0
 211 209 228 191 228 170 c 0
 228 149 211 132 190 132 c 0
 169 132 152 149 152 170 c 0
284 302 m 0
 284 323 301 340 322 340 c 0
 343 340 360 323 360 302 c 0
 360 281 343 264 322 264 c 0
 301 264 284 281 284 302 c 0
152 302 m 0
 152 323 169 340 190 340 c 0
 211 340 228 323 228 302 c 0
 228 281 211 264 190 264 c 0
 169 264 152 281 152 302 c 0
EndSplineSet
Validated: 1
EndChar

StartChar: m
Encoding: 109 109 26
Width: 512
VWidth: 0
Flags: HW
LayerCount: 2
Fore
SplineSet
289 38 m 0
 289 20 304 5 322 5 c 0
 340 5 355 20 355 38 c 0
 355 56 340 71 322 71 c 0
 304 71 289 56 289 38 c 0
284 38 m 0
 284 59 301 76 322 76 c 0
 343 76 360 59 360 38 c 0
 360 17 343 0 322 0 c 0
 301 0 284 17 284 38 c 0
152 38 m 0
 152 59 169 76 190 76 c 0
 211 76 228 59 228 38 c 0
 228 17 211 0 190 0 c 0
 169 0 152 17 152 38 c 0
289 170 m 0
 289 152 304 137 322 137 c 0
 340 137 355 152 355 170 c 0
 355 188 340 204 322 204 c 0
 304 204 289 188 289 170 c 0
284 170 m 0
 284 191 301 209 322 209 c 0
 343 209 360 191 360 170 c 0
 360 149 343 132 322 132 c 0
 301 132 284 149 284 170 c 0
157 170 m 0
 157 152 172 137 190 137 c 0
 208 137 223 152 223 170 c 0
 223 188 208 204 190 204 c 0
 172 204 157 188 157 170 c 0
152 170 m 0
 152 191 169 209 190 209 c 0
 211 209 228 191 228 170 c 0
 228 149 211 132 190 132 c 0
 169 132 152 149 152 170 c 0
284 302 m 0
 284 323 301 340 322 340 c 0
 343 340 360 323 360 302 c 0
 360 281 343 264 322 264 c 0
 301 264 284 281 284 302 c 0
152 302 m 0
 152 323 169 340 190 340 c 0
 211 340 228 323 228 302 c 0
 228 281 211 264 190 264 c 0
 169 264 152 281 152 302 c 0
EndSplineSet
Validated: 1
EndChar

StartChar: N
Encoding: 78 78 27
Width: 512
VWidth: 0
Flags: HW
LayerCount: 2
Fore
SplineSet
289 38 m 0
 289 20 304 5 322 5 c 0
 340 5 355 20 355 38 c 0
 355 56 340 71 322 71 c 0
 304 71 289 56 289 38 c 0
284 38 m 0
 284 59 301 76 322 76 c 0
 343 76 360 59 360 38 c 0
 360 17 343 0 322 0 c 0
 301 0 284 17 284 38 c 0
152 38 m 0
 152 59 169 76 190 76 c 0
 211 76 228 59 228 38 c 0
 228 17 211 0 190 0 c 0
 169 0 152 17 152 38 c 0
284 170 m 0
 284 191 301 209 322 209 c 0
 343 209 360 191 360 170 c 0
 360 149 343 132 322 132 c 0
 301 132 284 149 284 170 c 0
157 170 m 0
 157 152 172 137 190 137 c 0
 208 137 223 152 223 170 c 0
 223 188 208 204 190 204 c 0
 172 204 157 188 157 170 c 0
152 170 m 0
 152 191 169 209 190 209 c 0
 211 209 228 191 228 170 c 0
 228 149 211 132 190 132 c 0
 169 132 152 149 152 170 c 0
284 302 m 0
 284 323 301 340 322 340 c 0
 343 340 360 323 360 302 c 0
 360 281 343 264 322 264 c 0
 301 264 284 281 284 302 c 0
152 302 m 0
 152 323 169 340 190 340 c 0
 211 340 228 323 228 302 c 0
 228 281 211 264 190 264 c 0
 169 264 152 281 152 302 c 0
EndSplineSet
Validated: 1
EndChar

StartChar: n
Encoding: 110 110 28
Width: 512
VWidth: 0
Flags: HW
LayerCount: 2
Fore
SplineSet
289 38 m 0
 289 20 304 5 322 5 c 0
 340 5 355 20 355 38 c 0
 355 56 340 71 322 71 c 0
 304 71 289 56 289 38 c 0
284 38 m 0
 284 59 301 76 322 76 c 0
 343 76 360 59 360 38 c 0
 360 17 343 0 322 0 c 0
 301 0 284 17 284 38 c 0
152 38 m 0
 152 59 169 76 190 76 c 0
 211 76 228 59 228 38 c 0
 228 17 211 0 190 0 c 0
 169 0 152 17 152 38 c 0
284 170 m 0
 284 191 301 209 322 209 c 0
 343 209 360 191 360 170 c 0
 360 149 343 132 322 132 c 0
 301 132 284 149 284 170 c 0
157 170 m 0
 157 152 172 137 190 137 c 0
 208 137 223 152 223 170 c 0
 223 188 208 204 190 204 c 0
 172 204 157 188 157 170 c 0
152 170 m 0
 152 191 169 209 190 209 c 0
 211 209 228 191 228 170 c 0
 228 149 211 132 190 132 c 0
 169 132 152 149 152 170 c 0
284 302 m 0
 284 323 301 340 322 340 c 0
 343 340 360 323 360 302 c 0
 360 281 343 264 322 264 c 0
 301 264 284 281 284 302 c 0
152 302 m 0
 152 323 169 340 190 340 c 0
 211 340 228 323 228 302 c 0
 228 281 211 264 190 264 c 0
 169 264 152 281 152 302 c 0
EndSplineSet
Validated: 1
EndChar

StartChar: O
Encoding: 79 79 29
Width: 512
VWidth: 0
Flags: HW
LayerCount: 2
Fore
SplineSet
289 38 m 0
 289 20 304 5 322 5 c 0
 340 5 355 20 355 38 c 0
 355 56 340 71 322 71 c 0
 304 71 289 56 289 38 c 0
284 38 m 0
 284 59 301 76 322 76 c 0
 343 76 360 59 360 38 c 0
 360 17 343 0 322 0 c 0
 301 0 284 17 284 38 c 0
152 38 m 0
 152 59 169 76 190 76 c 0
 211 76 228 59 228 38 c 0
 228 17 211 0 190 0 c 0
 169 0 152 17 152 38 c 0
284 170 m 0
 284 191 301 209 322 209 c 0
 343 209 360 191 360 170 c 0
 360 149 343 132 322 132 c 0
 301 132 284 149 284 170 c 0
157 170 m 0
 157 152 172 137 190 137 c 0
 208 137 223 152 223 170 c 0
 223 188 208 204 190 204 c 0
 172 204 157 188 157 170 c 0
152 170 m 0
 152 191 169 209 190 209 c 0
 211 209 228 191 228 170 c 0
 228 149 211 132 190 132 c 0
 169 132 152 149 152 170 c 0
289 302 m 0
 289 284 304 269 322 269 c 0
 340 269 355 284 355 302 c 0
 355 320 340 335 322 335 c 0
 304 335 289 320 289 302 c 0
284 302 m 0
 284 323 301 340 322 340 c 0
 343 340 360 323 360 302 c 0
 360 281 343 264 322 264 c 0
 301 264 284 281 284 302 c 0
152 302 m 0
 152 323 169 340 190 340 c 0
 211 340 228 323 228 302 c 0
 228 281 211 264 190 264 c 0
 169 264 152 281 152 302 c 0
EndSplineSet
Validated: 1
EndChar

StartChar: o
Encoding: 111 111 30
Width: 512
VWidth: 0
Flags: HW
LayerCount: 2
Fore
SplineSet
289 38 m 0
 289 20 304 5 322 5 c 0
 340 5 355 20 355 38 c 0
 355 56 340 71 322 71 c 0
 304 71 289 56 289 38 c 0
284 38 m 0
 284 59 301 76 322 76 c 0
 343 76 360 59 360 38 c 0
 360 17 343 0 322 0 c 0
 301 0 284 17 284 38 c 0
152 38 m 0
 152 59 169 76 190 76 c 0
 211 76 228 59 228 38 c 0
 228 17 211 0 190 0 c 0
 169 0 152 17 152 38 c 0
284 170 m 0
 284 191 301 209 322 209 c 0
 343 209 360 191 360 170 c 0
 360 149 343 132 322 132 c 0
 301 132 284 149 284 170 c 0
157 170 m 0
 157 152 172 137 190 137 c 0
 208 137 223 152 223 170 c 0
 223 188 208 204 190 204 c 0
 172 204 157 188 157 170 c 0
152 170 m 0
 152 191 169 209 190 209 c 0
 211 209 228 191 228 170 c 0
 228 149 211 132 190 132 c 0
 169 132 152 149 152 170 c 0
289 302 m 0
 289 284 304 269 322 269 c 0
 340 269 355 284 355 302 c 0
 355 320 340 335 322 335 c 0
 304 335 289 320 289 302 c 0
284 302 m 0
 284 323 301 340 322 340 c 0
 343 340 360 323 360 302 c 0
 360 281 343 264 322 264 c 0
 301 264 284 281 284 302 c 0
152 302 m 0
 152 323 169 340 190 340 c 0
 211 340 228 323 228 302 c 0
 228 281 211 264 190 264 c 0
 169 264 152 281 152 302 c 0
EndSplineSet
Validated: 1
EndChar

StartChar: P
Encoding: 80 80 31
Width: 512
VWidth: 0
Flags: HW
LayerCount: 2
Fore
SplineSet
289 38 m 0
 289 20 304 5 322 5 c 0
 340 5 355 20 355 38 c 0
 355 56 340 71 322 71 c 0
 304 71 289 56 289 38 c 0
284 38 m 0
 284 59 301 76 322 76 c 0
 343 76 360 59 360 38 c 0
 360 17 343 0 322 0 c 0
 301 0 284 17 284 38 c 0
152 38 m 0
 152 59 169 76 190 76 c 0
 211 76 228 59 228 38 c 0
 228 17 211 0 190 0 c 0
 169 0 152 17 152 38 c 0
289 170 m 0
 289 152 304 137 322 137 c 0
 340 137 355 152 355 170 c 0
 355 188 340 204 322 204 c 0
 304 204 289 188 289 170 c 0
284 170 m 0
 284 191 301 209 322 209 c 0
 343 209 360 191 360 170 c 0
 360 149 343 132 322 132 c 0
 301 132 284 149 284 170 c 0
152 170 m 0
 152 191 169 209 190 209 c 0
 211 209 228 191 228 170 c 0
 228 149 211 132 190 132 c 0
 169 132 152 149 152 170 c 0
284 302 m 0
 284 323 301 340 322 340 c 0
 343 340 360 323 360 302 c 0
 360 281 343 264 322 264 c 0
 301 264 284 281 284 302 c 0
152 302 m 0
 152 323 169 340 190 340 c 0
 211 340 228 323 228 302 c 0
 228 281 211 264 190 264 c 0
 169 264 152 281 152 302 c 0
EndSplineSet
Validated: 1
EndChar

StartChar: p
Encoding: 112 112 32
Width: 512
VWidth: 0
Flags: HW
LayerCount: 2
Fore
SplineSet
289 38 m 0
 289 20 304 5 322 5 c 0
 340 5 355 20 355 38 c 0
 355 56 340 71 322 71 c 0
 304 71 289 56 289 38 c 0
284 38 m 0
 284 59 301 76 322 76 c 0
 343 76 360 59 360 38 c 0
 360 17 343 0 322 0 c 0
 301 0 284 17 284 38 c 0
152 38 m 0
 152 59 169 76 190 76 c 0
 211 76 228 59 228 38 c 0
 228 17 211 0 190 0 c 0
 169 0 152 17 152 38 c 0
289 170 m 0
 289 152 304 137 322 137 c 0
 340 137 355 152 355 170 c 0
 355 188 340 204 322 204 c 0
 304 204 289 188 289 170 c 0
284 170 m 0
 284 191 301 209 322 209 c 0
 343 209 360 191 360 170 c 0
 360 149 343 132 322 132 c 0
 301 132 284 149 284 170 c 0
152 170 m 0
 152 191 169 209 190 209 c 0
 211 209 228 191 228 170 c 0
 228 149 211 132 190 132 c 0
 169 132 152 149 152 170 c 0
284 302 m 0
 284 323 301 340 322 340 c 0
 343 340 360 323 360 302 c 0
 360 281 343 264 322 264 c 0
 301 264 284 281 284 302 c 0
152 302 m 0
 152 323 169 340 190 340 c 0
 211 340 228 323 228 302 c 0
 228 281 211 264 190 264 c 0
 169 264 152 281 152 302 c 0
EndSplineSet
Validated: 1
EndChar

StartChar: Q
Encoding: 81 81 33
Width: 512
VWidth: 0
Flags: HW
LayerCount: 2
Fore
SplineSet
289 38 m 0
 289 20 304 5 322 5 c 0
 340 5 355 20 355 38 c 0
 355 56 340 71 322 71 c 0
 304 71 289 56 289 38 c 0
284 38 m 0
 284 59 301 76 322 76 c 0
 343 76 360 59 360 38 c 0
 360 17 343 0 322 0 c 0
 301 0 284 17 284 38 c 0
152 38 m 0
 152 59 169 76 190 76 c 0
 211 76 228 59 228 38 c 0
 228 17 211 0 190 0 c 0
 169 0 152 17 152 38 c 0
284 170 m 0
 284 191 301 209 322 209 c 0
 343 209 360 191 360 170 c 0
 360 149 343 132 322 132 c 0
 301 132 284 149 284 170 c 0
152 170 m 0
 152 191 169 209 190 209 c 0
 211 209 228 191 228 170 c 0
 228 149 211 132 190 132 c 0
 169 132 152 149 152 170 c 0
284 302 m 0
 284 323 301 340 322 340 c 0
 343 340 360 323 360 302 c 0
 360 281 343 264 322 264 c 0
 301 264 284 281 284 302 c 0
152 302 m 0
 152 323 169 340 190 340 c 0
 211 340 228 323 228 302 c 0
 228 281 211 264 190 264 c 0
 169 264 152 281 152 302 c 0
EndSplineSet
Validated: 1
EndChar

StartChar: q
Encoding: 113 113 34
Width: 512
VWidth: 0
Flags: HW
LayerCount: 2
Fore
SplineSet
289 38 m 0
 289 20 304 5 322 5 c 0
 340 5 355 20 355 38 c 0
 355 56 340 71 322 71 c 0
 304 71 289 56 289 38 c 0
284 38 m 0
 284 59 301 76 322 76 c 0
 343 76 360 59 360 38 c 0
 360 17 343 0 322 0 c 0
 301 0 284 17 284 38 c 0
152 38 m 0
 152 59 169 76 190 76 c 0
 211 76 228 59 228 38 c 0
 228 17 211 0 190 0 c 0
 169 0 152 17 152 38 c 0
284 170 m 0
 284 191 301 209 322 209 c 0
 343 209 360 191 360 170 c 0
 360 149 343 132 322 132 c 0
 301 132 284 149 284 170 c 0
152 170 m 0
 152 191 169 209 190 209 c 0
 211 209 228 191 228 170 c 0
 228 149 211 132 190 132 c 0
 169 132 152 149 152 170 c 0
284 302 m 0
 284 323 301 340 322 340 c 0
 343 340 360 323 360 302 c 0
 360 281 343 264 322 264 c 0
 301 264 284 281 284 302 c 0
152 302 m 0
 152 323 169 340 190 340 c 0
 211 340 228 323 228 302 c 0
 228 281 211 264 190 264 c 0
 169 264 152 281 152 302 c 0
EndSplineSet
Validated: 1
EndChar

StartChar: R
Encoding: 82 82 35
Width: 512
VWidth: 0
Flags: HW
LayerCount: 2
Fore
SplineSet
289 38 m 0
 289 20 304 5 322 5 c 0
 340 5 355 20 355 38 c 0
 355 56 340 71 322 71 c 0
 304 71 289 56 289 38 c 0
284 38 m 0
 284 59 301 76 322 76 c 0
 343 76 360 59 360 38 c 0
 360 17 343 0 322 0 c 0
 301 0 284 17 284 38 c 0
152 38 m 0
 152 59 169 76 190 76 c 0
 211 76 228 59 228 38 c 0
 228 17 211 0 190 0 c 0
 169 0 152 17 152 38 c 0
284 170 m 0
 284 191 301 209 322 209 c 0
 343 209 360 191 360 170 c 0
 360 149 343 132 322 132 c 0
 301 132 284 149 284 170 c 0
152 170 m 0
 152 191 169 209 190 209 c 0
 211 209 228 191 228 170 c 0
 228 149 211 132 190 132 c 0
 169 132 152 149 152 170 c 0
289 302 m 0
 289 284 304 269 322 269 c 0
 340 269 355 284 355 302 c 0
 355 320 340 335 322 335 c 0
 304 335 289 320 289 302 c 0
284 302 m 0
 284 323 301 340 322 340 c 0
 343 340 360 323 360 302 c 0
 360 281 343 264 322 264 c 0
 301 264 284 281 284 302 c 0
152 302 m 0
 152 323 169 340 190 340 c 0
 211 340 228 323 228 302 c 0
 228 281 211 264 190 264 c 0
 169 264 152 281 152 302 c 0
EndSplineSet
Validated: 1
EndChar

StartChar: r
Encoding: 114 114 36
Width: 512
VWidth: 0
Flags: HW
LayerCount: 2
Fore
SplineSet
289 38 m 0
 289 20 304 5 322 5 c 0
 340 5 355 20 355 38 c 0
 355 56 340 71 322 71 c 0
 304 71 289 56 289 38 c 0
284 38 m 0
 284 59 301 76 322 76 c 0
 343 76 360 59 360 38 c 0
 360 17 343 0 322 0 c 0
 301 0 284 17 284 38 c 0
152 38 m 0
 152 59 169 76 190 76 c 0
 211 76 228 59 228 38 c 0
 228 17 211 0 190 0 c 0
 169 0 152 17 152 38 c 0
284 170 m 0
 284 191 301 209 322 209 c 0
 343 209 360 191 360 170 c 0
 360 149 343 132 322 132 c 0
 301 132 284 149 284 170 c 0
152 170 m 0
 152 191 169 209 190 209 c 0
 211 209 228 191 228 170 c 0
 228 149 211 132 190 132 c 0
 169 132 152 149 152 170 c 0
289 302 m 0
 289 284 304 269 322 269 c 0
 340 269 355 284 355 302 c 0
 355 320 340 335 322 335 c 0
 304 335 289 320 289 302 c 0
284 302 m 0
 284 323 301 340 322 340 c 0
 343 340 360 323 360 302 c 0
 360 281 343 264 322 264 c 0
 301 264 284 281 284 302 c 0
152 302 m 0
 152 323 169 340 190 340 c 0
 211 340 228 323 228 302 c 0
 228 281 211 264 190 264 c 0
 169 264 152 281 152 302 c 0
EndSplineSet
Validated: 1
EndChar

StartChar: S
Encoding: 83 83 37
Width: 512
VWidth: 0
Flags: HW
LayerCount: 2
Fore
SplineSet
289 38 m 0
 289 20 304 5 322 5 c 0
 340 5 355 20 355 38 c 0
 355 56 340 71 322 71 c 0
 304 71 289 56 289 38 c 0
284 38 m 0
 284 59 301 76 322 76 c 0
 343 76 360 59 360 38 c 0
 360 17 343 0 322 0 c 0
 301 0 284 17 284 38 c 0
152 38 m 0
 152 59 169 76 190 76 c 0
 211 76 228 59 228 38 c 0
 228 17 211 0 190 0 c 0
 169 0 152 17 152 38 c 0
289 170 m 0
 289 152 304 137 322 137 c 0
 340 137 355 152 355 170 c 0
 355 188 340 204 322 204 c 0
 304 204 289 188 289 170 c 0
284 170 m 0
 284 191 301 209 322 209 c 0
 343 209 360 191 360 170 c 0
 360 149 343 132 322 132 c 0
 301 132 284 149 284 170 c 0
152 170 m 0
 152 191 169 209 190 209 c 0
 211 209 228 191 228 170 c 0
 228 149 211 132 190 132 c 0
 169 132 152 149 152 170 c 0
284 302 m 0
 284 323 301 340 322 340 c 0
 343 340 360 323 360 302 c 0
 360 281 343 264 322 264 c 0
 301 264 284 281 284 302 c 0
157 302 m 0
 157 284 172 269 190 269 c 0
 208 269 223 284 223 302 c 0
 223 320 208 335 190 335 c 0
 172 335 157 320 157 302 c 0
152 302 m 0
 152 323 169 340 190 340 c 0
 211 340 228 323 228 302 c 0
 228 281 211 264 190 264 c 0
 169 264 152 281 152 302 c 0
EndSplineSet
Validated: 1
EndChar

StartChar: s
Encoding: 115 115 38
Width: 512
VWidth: 0
Flags: HW
LayerCount: 2
Fore
SplineSet
289 38 m 0
 289 20 304 5 322 5 c 0
 340 5 355 20 355 38 c 0
 355 56 340 71 322 71 c 0
 304 71 289 56 289 38 c 0
284 38 m 0
 284 59 301 76 322 76 c 0
 343 76 360 59 360 38 c 0
 360 17 343 0 322 0 c 0
 301 0 284 17 284 38 c 0
152 38 m 0
 152 59 169 76 190 76 c 0
 211 76 228 59 228 38 c 0
 228 17 211 0 190 0 c 0
 169 0 152 17 152 38 c 0
289 170 m 0
 289 152 304 137 322 137 c 0
 340 137 355 152 355 170 c 0
 355 188 340 204 322 204 c 0
 304 204 289 188 289 170 c 0
284 170 m 0
 284 191 301 209 322 209 c 0
 343 209 360 191 360 170 c 0
 360 149 343 132 322 132 c 0
 301 132 284 149 284 170 c 0
152 170 m 0
 152 191 169 209 190 209 c 0
 211 209 228 191 228 170 c 0
 228 149 211 132 190 132 c 0
 169 132 152 149 152 170 c 0
284 302 m 0
 284 323 301 340 322 340 c 0
 343 340 360 323 360 302 c 0
 360 281 343 264 322 264 c 0
 301 264 284 281 284 302 c 0
157 302 m 0
 157 284 172 269 190 269 c 0
 208 269 223 284 223 302 c 0
 223 320 208 335 190 335 c 0
 172 335 157 320 157 302 c 0
152 302 m 0
 152 323 169 340 190 340 c 0
 211 340 228 323 228 302 c 0
 228 281 211 264 190 264 c 0
 169 264 152 281 152 302 c 0
EndSplineSet
Validated: 1
EndChar

StartChar: T
Encoding: 84 84 39
Width: 512
VWidth: 0
Flags: HW
LayerCount: 2
Fore
SplineSet
289 38 m 0
 289 20 304 5 322 5 c 0
 340 5 355 20 355 38 c 0
 355 56 340 71 322 71 c 0
 304 71 289 56 289 38 c 0
284 38 m 0
 284 59 301 76 322 76 c 0
 343 76 360 59 360 38 c 0
 360 17 343 0 322 0 c 0
 301 0 284 17 284 38 c 0
152 38 m 0
 152 59 169 76 190 76 c 0
 211 76 228 59 228 38 c 0
 228 17 211 0 190 0 c 0
 169 0 152 17 152 38 c 0
284 170 m 0
 284 191 301 209 322 209 c 0
 343 209 360 191 360 170 c 0
 360 149 343 132 322 132 c 0
 301 132 284 149 284 170 c 0
152 170 m 0
 152 191 169 209 190 209 c 0
 211 209 228 191 228 170 c 0
 228 149 211 132 190 132 c 0
 169 132 152 149 152 170 c 0
284 302 m 0
 284 323 301 340 322 340 c 0
 343 340 360 323 360 302 c 0
 360 281 343 264 322 264 c 0
 301 264 284 281 284 302 c 0
157 302 m 0
 157 284 172 269 190 269 c 0
 208 269 223 284 223 302 c 0
 223 320 208 335 190 335 c 0
 172 335 157 320 157 302 c 0
152 302 m 0
 152 323 169 340 190 340 c 0
 211 340 228 323 228 302 c 0
 228 281 211 264 190 264 c 0
 169 264 152 281 152 302 c 0
EndSplineSet
Validated: 1
EndChar

StartChar: t
Encoding: 116 116 40
Width: 512
VWidth: 0
Flags: HW
LayerCount: 2
Fore
SplineSet
289 38 m 0
 289 20 304 5 322 5 c 0
 340 5 355 20 355 38 c 0
 355 56 340 71 322 71 c 0
 304 71 289 56 289 38 c 0
284 38 m 0
 284 59 301 76 322 76 c 0
 343 76 360 59 360 38 c 0
 360 17 343 0 322 0 c 0
 301 0 284 17 284 38 c 0
152 38 m 0
 152 59 169 76 190 76 c 0
 211 76 228 59 228 38 c 0
 228 17 211 0 190 0 c 0
 169 0 152 17 152 38 c 0
284 170 m 0
 284 191 301 209 322 209 c 0
 343 209 360 191 360 170 c 0
 360 149 343 132 322 132 c 0
 301 132 284 149 284 170 c 0
152 170 m 0
 152 191 169 209 190 209 c 0
 211 209 228 191 228 170 c 0
 228 149 211 132 190 132 c 0
 169 132 152 149 152 170 c 0
284 302 m 0
 284 323 301 340 322 340 c 0
 343 340 360 323 360 302 c 0
 360 281 343 264 322 264 c 0
 301 264 284 281 284 302 c 0
157 302 m 0
 157 284 172 269 190 269 c 0
 208 269 223 284 223 302 c 0
 223 320 208 335 190 335 c 0
 172 335 157 320 157 302 c 0
152 302 m 0
 152 323 169 340 190 340 c 0
 211 340 228 323 228 302 c 0
 228 281 211 264 190 264 c 0
 169 264 152 281 152 302 c 0
EndSplineSet
Validated: 1
EndChar

StartChar: U
Encoding: 85 85 41
Width: 512
VWidth: 0
Flags: HW
LayerCount: 2
Fore
SplineSet
284 38 m 0
 284 59 301 76 322 76 c 0
 343 76 360 59 360 38 c 0
 360 17 343 0 322 0 c 0
 301 0 284 17 284 38 c 0
152 38 m 0
 152 59 169 76 190 76 c 0
 211 76 228 59 228 38 c 0
 228 17 211 0 190 0 c 0
 169 0 152 17 152 38 c 0
289 170 m 0
 289 152 304 137 322 137 c 0
 340 137 355 152 355 170 c 0
 355 188 340 204 322 204 c 0
 304 204 289 188 289 170 c 0
284 170 m 0
 284 191 301 209 322 209 c 0
 343 209 360 191 360 170 c 0
 360 149 343 132 322 132 c 0
 301 132 284 149 284 170 c 0
157 170 m 0
 157 152 172 137 190 137 c 0
 208 137 223 152 223 170 c 0
 223 188 208 204 190 204 c 0
 172 204 157 188 157 170 c 0
152 170 m 0
 152 191 169 209 190 209 c 0
 211 209 228 191 228 170 c 0
 228 149 211 132 190 132 c 0
 169 132 152 149 152 170 c 0
289 302 m 0
 289 284 304 269 322 269 c 0
 340 269 355 284 355 302 c 0
 355 320 340 335 322 335 c 0
 304 335 289 320 289 302 c 0
284 302 m 0
 284 323 301 340 322 340 c 0
 343 340 360 323 360 302 c 0
 360 281 343 264 322 264 c 0
 301 264 284 281 284 302 c 0
152 302 m 0
 152 323 169 340 190 340 c 0
 211 340 228 323 228 302 c 0
 228 281 211 264 190 264 c 0
 169 264 152 281 152 302 c 0
EndSplineSet
Validated: 1
EndChar

StartChar: u
Encoding: 117 117 42
Width: 512
VWidth: 0
Flags: HW
LayerCount: 2
Fore
SplineSet
284 38 m 0
 284 59 301 76 322 76 c 0
 343 76 360 59 360 38 c 0
 360 17 343 0 322 0 c 0
 301 0 284 17 284 38 c 0
152 38 m 0
 152 59 169 76 190 76 c 0
 211 76 228 59 228 38 c 0
 228 17 211 0 190 0 c 0
 169 0 152 17 152 38 c 0
289 170 m 0
 289 152 304 137 322 137 c 0
 340 137 355 152 355 170 c 0
 355 188 340 204 322 204 c 0
 304 204 289 188 289 170 c 0
284 170 m 0
 284 191 301 209 322 209 c 0
 343 209 360 191 360 170 c 0
 360 149 343 132 322 132 c 0
 301 132 284 149 284 170 c 0
157 170 m 0
 157 152 172 137 190 137 c 0
 208 137 223 152 223 170 c 0
 223 188 208 204 190 204 c 0
 172 204 157 188 157 170 c 0
152 170 m 0
 152 191 169 209 190 209 c 0
 211 209 228 191 228 170 c 0
 228 149 211 132 190 132 c 0
 169 132 152 149 152 170 c 0
289 302 m 0
 289 284 304 269 322 269 c 0
 340 269 355 284 355 302 c 0
 355 320 340 335 322 335 c 0
 304 335 289 320 289 302 c 0
284 302 m 0
 284 323 301 340 322 340 c 0
 343 340 360 323 360 302 c 0
 360 281 343 264 322 264 c 0
 301 264 284 281 284 302 c 0
152 302 m 0
 152 323 169 340 190 340 c 0
 211 340 228 323 228 302 c 0
 228 281 211 264 190 264 c 0
 169 264 152 281 152 302 c 0
EndSplineSet
Validated: 1
EndChar

StartChar: V
Encoding: 86 86 43
Width: 512
VWidth: 0
Flags: HW
LayerCount: 2
Fore
SplineSet
284 38 m 0
 284 59 301 76 322 76 c 0
 343 76 360 59 360 38 c 0
 360 17 343 0 322 0 c 0
 301 0 284 17 284 38 c 0
152 38 m 0
 152 59 169 76 190 76 c 0
 211 76 228 59 228 38 c 0
 228 17 211 0 190 0 c 0
 169 0 152 17 152 38 c 0
289 170 m 0
 289 152 304 137 322 137 c 0
 340 137 355 152 355 170 c 0
 355 188 340 204 322 204 c 0
 304 204 289 188 289 170 c 0
284 170 m 0
 284 191 301 209 322 209 c 0
 343 209 360 191 360 170 c 0
 360 149 343 132 322 132 c 0
 301 132 284 149 284 170 c 0
152 170 m 0
 152 191 169 209 190 209 c 0
 211 209 228 191 228 170 c 0
 228 149 211 132 190 132 c 0
 169 132 152 149 152 170 c 0
289 302 m 0
 289 284 304 269 322 269 c 0
 340 269 355 284 355 302 c 0
 355 320 340 335 322 335 c 0
 304 335 289 320 289 302 c 0
284 302 m 0
 284 323 301 340 322 340 c 0
 343 340 360 323 360 302 c 0
 360 281 343 264 322 264 c 0
 301 264 284 281 284 302 c 0
152 302 m 0
 152 323 169 340 190 340 c 0
 211 340 228 323 228 302 c 0
 228 281 211 264 190 264 c 0
 169 264 152 281 152 302 c 0
EndSplineSet
Validated: 1
EndChar

StartChar: v
Encoding: 118 118 44
Width: 512
VWidth: 0
Flags: HW
LayerCount: 2
Fore
SplineSet
284 38 m 0
 284 59 301 76 322 76 c 0
 343 76 360 59 360 38 c 0
 360 17 343 0 322 0 c 0
 301 0 284 17 284 38 c 0
152 38 m 0
 152 59 169 76 190 76 c 0
 211 76 228 59 228 38 c 0
 228 17 211 0 190 0 c 0
 169 0 152 17 152 38 c 0
289 170 m 0
 289 152 304 137 322 137 c 0
 340 137 355 152 355 170 c 0
 355 188 340 204 322 204 c 0
 304 204 289 188 289 170 c 0
284 170 m 0
 284 191 301 209 322 209 c 0
 343 209 360 191 360 170 c 0
 360 149 343 132 322 132 c 0
 301 132 284 149 284 170 c 0
152 170 m 0
 152 191 169 209 190 209 c 0
 211 209 228 191 228 170 c 0
 228 149 211 132 190 132 c 0
 169 132 152 149 152 170 c 0
289 302 m 0
 289 284 304 269 322 269 c 0
 340 269 355 284 355 302 c 0
 355 320 340 335 322 335 c 0
 304 335 289 320 289 302 c 0
284 302 m 0
 284 323 301 340 322 340 c 0
 343 340 360 323 360 302 c 0
 360 281 343 264 322 264 c 0
 301 264 284 281 284 302 c 0
152 302 m 0
 152 323 169 340 190 340 c 0
 211 340 228 323 228 302 c 0
 228 281 211 264 190 264 c 0
 169 264 152 281 152 302 c 0
EndSplineSet
Validated: 1
EndChar

StartChar: W
Encoding: 87 87 45
Width: 512
VWidth: 0
Flags: HW
LayerCount: 2
Fore
SplineSet
284 38 m 0
 284 59 301 76 322 76 c 0
 343 76 360 59 360 38 c 0
 360 17 343 0 322 0 c 0
 301 0 284 17 284 38 c 0
157 38 m 0
 157 20 172 5 190 5 c 0
 208 5 223 20 223 38 c 0
 223 56 208 71 190 71 c 0
 172 71 157 56 157 38 c 0
152 38 m 0
 152 59 169 76 190 76 c 0
 211 76 228 59 228 38 c 0
 228 17 211 0 190 0 c 0
 169 0 152 17 152 38 c 0
284 170 m 0
 284 191 301 209 322 209 c 0
 343 209 360 191 360 170 c 0
 360 149 343 132 322 132 c 0
 301 132 284 149 284 170 c 0
152 170 m 0
 152 191 169 209 190 209 c 0
 211 209 228 191 228 170 c 0
 228 149 211 132 190 132 c 0
 169 132 152 149 152 170 c 0
284 302 m 0
 284 323 301 340 322 340 c 0
 343 340 360 323 360 302 c 0
 360 281 343 264 322 264 c 0
 301 264 284 281 284 302 c 0
157 302 m 0
 157 284 172 269 190 269 c 0
 208 269 223 284 223 302 c 0
 223 320 208 335 190 335 c 0
 172 335 157 320 157 302 c 0
152 302 m 0
 152 323 169 340 190 340 c 0
 211 340 228 323 228 302 c 0
 228 281 211 264 190 264 c 0
 169 264 152 281 152 302 c 0
EndSplineSet
Validated: 1
EndChar

StartChar: w
Encoding: 119 119 46
Width: 512
VWidth: 0
Flags: HW
LayerCount: 2
Fore
SplineSet
284 38 m 0
 284 59 301 76 322 76 c 0
 343 76 360 59 360 38 c 0
 360 17 343 0 322 0 c 0
 301 0 284 17 284 38 c 0
157 38 m 0
 157 20 172 5 190 5 c 0
 208 5 223 20 223 38 c 0
 223 56 208 71 190 71 c 0
 172 71 157 56 157 38 c 0
152 38 m 0
 152 59 169 76 190 76 c 0
 211 76 228 59 228 38 c 0
 228 17 211 0 190 0 c 0
 169 0 152 17 152 38 c 0
284 170 m 0
 284 191 301 209 322 209 c 0
 343 209 360 191 360 170 c 0
 360 149 343 132 322 132 c 0
 301 132 284 149 284 170 c 0
152 170 m 0
 152 191 169 209 190 209 c 0
 211 209 228 191 228 170 c 0
 228 149 211 132 190 132 c 0
 169 132 152 149 152 170 c 0
284 302 m 0
 284 323 301 340 322 340 c 0
 343 340 360 323 360 302 c 0
 360 281 343 264 322 264 c 0
 301 264 284 281 284 302 c 0
157 302 m 0
 157 284 172 269 190 269 c 0
 208 269 223 284 223 302 c 0
 223 320 208 335 190 335 c 0
 172 335 157 320 157 302 c 0
152 302 m 0
 152 323 169 340 190 340 c 0
 211 340 228 323 228 302 c 0
 228 281 211 264 190 264 c 0
 169 264 152 281 152 302 c 0
EndSplineSet
Validated: 1
EndChar

StartChar: X
Encoding: 88 88 47
Width: 512
VWidth: 0
Flags: HW
LayerCount: 2
Fore
SplineSet
284 38 m 0
 284 59 301 76 322 76 c 0
 343 76 360 59 360 38 c 0
 360 17 343 0 322 0 c 0
 301 0 284 17 284 38 c 0
152 38 m 0
 152 59 169 76 190 76 c 0
 211 76 228 59 228 38 c 0
 228 17 211 0 190 0 c 0
 169 0 152 17 152 38 c 0
289 170 m 0
 289 152 304 137 322 137 c 0
 340 137 355 152 355 170 c 0
 355 188 340 204 322 204 c 0
 304 204 289 188 289 170 c 0
284 170 m 0
 284 191 301 209 322 209 c 0
 343 209 360 191 360 170 c 0
 360 149 343 132 322 132 c 0
 301 132 284 149 284 170 c 0
157 170 m 0
 157 152 172 137 190 137 c 0
 208 137 223 152 223 170 c 0
 223 188 208 204 190 204 c 0
 172 204 157 188 157 170 c 0
152 170 m 0
 152 191 169 209 190 209 c 0
 211 209 228 191 228 170 c 0
 228 149 211 132 190 132 c 0
 169 132 152 149 152 170 c 0
284 302 m 0
 284 323 301 340 322 340 c 0
 343 340 360 323 360 302 c 0
 360 281 343 264 322 264 c 0
 301 264 284 281 284 302 c 0
152 302 m 0
 152 323 169 340 190 340 c 0
 211 340 228 323 228 302 c 0
 228 281 211 264 190 264 c 0
 169 264 152 281 152 302 c 0
EndSplineSet
Validated: 1
EndChar

StartChar: x
Encoding: 120 120 48
Width: 512
VWidth: 0
Flags: HW
LayerCount: 2
Fore
SplineSet
284 38 m 0
 284 59 301 76 322 76 c 0
 343 76 360 59 360 38 c 0
 360 17 343 0 322 0 c 0
 301 0 284 17 284 38 c 0
152 38 m 0
 152 59 169 76 190 76 c 0
 211 76 228 59 228 38 c 0
 228 17 211 0 190 0 c 0
 169 0 152 17 152 38 c 0
289 170 m 0
 289 152 304 137 322 137 c 0
 340 137 355 152 355 170 c 0
 355 188 340 204 322 204 c 0
 304 204 289 188 289 170 c 0
284 170 m 0
 284 191 301 209 322 209 c 0
 343 209 360 191 360 170 c 0
 360 149 343 132 322 132 c 0
 301 132 284 149 284 170 c 0
157 170 m 0
 157 152 172 137 190 137 c 0
 208 137 223 152 223 170 c 0
 223 188 208 204 190 204 c 0
 172 204 157 188 157 170 c 0
152 170 m 0
 152 191 169 209 190 209 c 0
 211 209 228 191 228 170 c 0
 228 149 211 132 190 132 c 0
 169 132 152 149 152 170 c 0
284 302 m 0
 284 323 301 340 322 340 c 0
 343 340 360 323 360 302 c 0
 360 281 343 264 322 264 c 0
 301 264 284 281 284 302 c 0
152 302 m 0
 152 323 169 340 190 340 c 0
 211 340 228 323 228 302 c 0
 228 281 211 264 190 264 c 0
 169 264 152 281 152 302 c 0
EndSplineSet
Validated: 1
EndChar

StartChar: Y
Encoding: 89 89 49
Width: 512
VWidth: 0
Flags: HW
LayerCount: 2
Fore
SplineSet
284 38 m 0
 284 59 301 76 322 76 c 0
 343 76 360 59 360 38 c 0
 360 17 343 0 322 0 c 0
 301 0 284 17 284 38 c 0
152 38 m 0
 152 59 169 76 190 76 c 0
 211 76 228 59 228 38 c 0
 228 17 211 0 190 0 c 0
 169 0 152 17 152 38 c 0
284 170 m 0
 284 191 301 209 322 209 c 0
 343 209 360 191 360 170 c 0
 360 149 343 132 322 132 c 0
 301 132 284 149 284 170 c 0
157 170 m 0
 157 152 172 137 190 137 c 0
 208 137 223 152 223 170 c 0
 223 188 208 204 190 204 c 0
 172 204 157 188 157 170 c 0
152 170 m 0
 152 191 169 209 190 209 c 0
 211 209 228 191 228 170 c 0
 228 149 211 132 190 132 c 0
 169 132 152 149 152 170 c 0
284 302 m 0
 284 323 301 340 322 340 c 0
 343 340 360 323 360 302 c 0
 360 281 343 264 322 264 c 0
 301 264 284 281 284 302 c 0
152 302 m 0
 152 323 169 340 190 340 c 0
 211 340 228 323 228 302 c 0
 228 281 211 264 190 264 c 0
 169 264 152 281 152 302 c 0
EndSplineSet
Validated: 1
EndChar

StartChar: y
Encoding: 121 121 50
Width: 512
VWidth: 0
Flags: HW
LayerCount: 2
Fore
SplineSet
284 38 m 0
 284 59 301 76 322 76 c 0
 343 76 360 59 360 38 c 0
 360 17 343 0 322 0 c 0
 301 0 284 17 284 38 c 0
152 38 m 0
 152 59 169 76 190 76 c 0
 211 76 228 59 228 38 c 0
 228 17 211 0 190 0 c 0
 169 0 152 17 152 38 c 0
284 170 m 0
 284 191 301 209 322 209 c 0
 343 209 360 191 360 170 c 0
 360 149 343 132 322 132 c 0
 301 132 284 149 284 170 c 0
157 170 m 0
 157 152 172 137 190 137 c 0
 208 137 223 152 223 170 c 0
 223 188 208 204 190 204 c 0
 172 204 157 188 157 170 c 0
152 170 m 0
 152 191 169 209 190 209 c 0
 211 209 228 191 228 170 c 0
 228 149 211 132 190 132 c 0
 169 132 152 149 152 170 c 0
284 302 m 0
 284 323 301 340 322 340 c 0
 343 340 360 323 360 302 c 0
 360 281 343 264 322 264 c 0
 301 264 284 281 284 302 c 0
152 302 m 0
 152 323 169 340 190 340 c 0
 211 340 228 323 228 302 c 0
 228 281 211 264 190 264 c 0
 169 264 152 281 152 302 c 0
EndSplineSet
Validated: 1
EndChar

StartChar: Z
Encoding: 90 90 51
Width: 512
VWidth: 0
Flags: HW
LayerCount: 2
Fore
SplineSet
284 38 m 0
 284 59 301 76 322 76 c 0
 343 76 360 59 360 38 c 0
 360 17 343 0 322 0 c 0
 301 0 284 17 284 38 c 0
152 38 m 0
 152 59 169 76 190 76 c 0
 211 76 228 59 228 38 c 0
 228 17 211 0 190 0 c 0
 169 0 152 17 152 38 c 0
284 170 m 0
 284 191 301 209 322 209 c 0
 343 209 360 191 360 170 c 0
 360 149 343 132 322 132 c 0
 301 132 284 149 284 170 c 0
157 170 m 0
 157 152 172 137 190 137 c 0
 208 137 223 152 223 170 c 0
 223 188 208 204 190 204 c 0
 172 204 157 188 157 170 c 0
152 170 m 0
 152 191 169 209 190 209 c 0
 211 209 228 191 228 170 c 0
 228 149 211 132 190 132 c 0
 169 132 152 149 152 170 c 0
289 302 m 0
 289 284 304 269 322 269 c 0
 340 269 355 284 355 302 c 0
 355 320 340 335 322 335 c 0
 304 335 289 320 289 302 c 0
284 302 m 0
 284 323 301 340 322 340 c 0
 343 340 360 323 360 302 c 0
 360 281 343 264 322 264 c 0
 301 264 284 281 284 302 c 0
152 302 m 0
 152 323 169 340 190 340 c 0
 211 340 228 323 228 302 c 0
 228 281 211 264 190 264 c 0
 169 264 152 281 152 302 c 0
EndSplineSet
Validated: 1
EndChar

StartChar: z
Encoding: 122 122 52
Width: 512
VWidth: 0
Flags: HW
LayerCount: 2
Fore
SplineSet
284 38 m 0
 284 59 301 76 322 76 c 0
 343 76 360 59 360 38 c 0
 360 17 343 0 322 0 c 0
 301 0 284 17 284 38 c 0
152 38 m 0
 152 59 169 76 190 76 c 0
 211 76 228 59 228 38 c 0
 228 17 211 0 190 0 c 0
 169 0 152 17 152 38 c 0
284 170 m 0
 284 191 301 209 322 209 c 0
 343 209 360 191 360 170 c 0
 360 149 343 132 322 132 c 0
 301 132 284 149 284 170 c 0
157 170 m 0
 157 152 172 137 190 137 c 0
 208 137 223 152 223 170 c 0
 223 188 208 204 190 204 c 0
 172 204 157 188 157 170 c 0
152 170 m 0
 152 191 169 209 190 209 c 0
 211 209 228 191 228 170 c 0
 228 149 211 132 190 132 c 0
 169 132 152 149 152 170 c 0
289 302 m 0
 289 284 304 269 322 269 c 0
 340 269 355 284 355 302 c 0
 355 320 340 335 322 335 c 0
 304 335 289 320 289 302 c 0
284 302 m 0
 284 323 301 340 322 340 c 0
 343 340 360 323 360 302 c 0
 360 281 343 264 322 264 c 0
 301 264 284 281 284 302 c 0
152 302 m 0
 152 323 169 340 190 340 c 0
 211 340 228 323 228 302 c 0
 228 281 211 264 190 264 c 0
 169 264 152 281 152 302 c 0
EndSplineSet
Validated: 1
EndChar

StartChar: numbersign
Encoding: 35 35 53
Width: 512
VWidth: 0
Flags: HW
LayerCount: 2
Fore
SplineSet
284 38 m 0
 284 59 301 76 322 76 c 0
 343 76 360 59 360 38 c 0
 360 17 343 0 322 0 c 0
 301 0 284 17 284 38 c 0
152 38 m 0
 152 59 169 76 190 76 c 0
 211 76 228 59 228 38 c 0
 228 17 211 0 190 0 c 0
 169 0 152 17 152 38 c 0
284 170 m 0
 284 191 301 209 322 209 c 0
 343 209 360 191 360 170 c 0
 360 149 343 132 322 132 c 0
 301 132 284 149 284 170 c 0
157 170 m 0
 157 152 172 137 190 137 c 0
 208 137 223 152 223 170 c 0
 223 188 208 204 190 204 c 0
 172 204 157 188 157 170 c 0
152 170 m 0
 152 191 169 209 190 209 c 0
 211 209 228 191 228 170 c 0
 228 149 211 132 190 132 c 0
 169 132 152 149 152 170 c 0
284 302 m 0
 284 323 301 340 322 340 c 0
 343 340 360 323 360 302 c 0
 360 281 343 264 322 264 c 0
 301 264 284 281 284 302 c 0
157 302 m 0
 157 284 172 269 190 269 c 0
 208 269 223 284 223 302 c 0
 223 320 208 335 190 335 c 0
 172 335 157 320 157 302 c 0
152 302 m 0
 152 323 169 340 190 340 c 0
 211 340 228 323 228 302 c 0
 228 281 211 264 190 264 c 0
 169 264 152 281 152 302 c 0
EndSplineSet
Validated: 1
EndChar

StartChar: zero
Encoding: 48 48 54
Width: 512
VWidth: 0
Flags: HW
LayerCount: 2
Fore
SplineSet
289 38 m 0
 289 20 304 5 322 5 c 0
 340 5 355 20 355 38 c 0
 355 56 340 71 322 71 c 0
 304 71 289 56 289 38 c 0
284 38 m 0
 284 59 301 76 322 76 c 0
 343 76 360 59 360 38 c 0
 360 17 343 0 322 0 c 0
 301 0 284 17 284 38 c 0
157 38 m 0
 157 20 172 5 190 5 c 0
 208 5 223 20 223 38 c 0
 223 56 208 71 190 71 c 0
 172 71 157 56 157 38 c 0
152 38 m 0
 152 59 169 76 190 76 c 0
 211 76 228 59 228 38 c 0
 228 17 211 0 190 0 c 0
 169 0 152 17 152 38 c 0
284 170 m 0
 284 191 301 209 322 209 c 0
 343 209 360 191 360 170 c 0
 360 149 343 132 322 132 c 0
 301 132 284 149 284 170 c 0
152 170 m 0
 152 191 169 209 190 209 c 0
 211 209 228 191 228 170 c 0
 228 149 211 132 190 132 c 0
 169 132 152 149 152 170 c 0
284 302 m 0
 284 323 301 340 322 340 c 0
 343 340 360 323 360 302 c 0
 360 281 343 264 322 264 c 0
 301 264 284 281 284 302 c 0
157 302 m 0
 157 284 172 269 190 269 c 0
 208 269 223 284 223 302 c 0
 223 320 208 335 190 335 c 0
 172 335 157 320 157 302 c 0
152 302 m 0
 152 323 169 340 190 340 c 0
 211 340 228 323 228 302 c 0
 228 281 211 264 190 264 c 0
 169 264 152 281 152 302 c 0
EndSplineSet
Validated: 1
EndChar

StartChar: one
Encoding: 49 49 55
Width: 512
VWidth: 0
Flags: HW
LayerCount: 2
Fore
SplineSet
289 38 m 0
 289 20 304 5 322 5 c 0
 340 5 355 20 355 38 c 0
 355 56 340 71 322 71 c 0
 304 71 289 56 289 38 c 0
284 38 m 0
 284 59 301 76 322 76 c 0
 343 76 360 59 360 38 c 0
 360 17 343 0 322 0 c 0
 301 0 284 17 284 38 c 0
157 38 m 0
 157 20 172 5 190 5 c 0
 208 5 223 20 223 38 c 0
 223 56 208 71 190 71 c 0
 172 71 157 56 157 38 c 0
152 38 m 0
 152 59 169 76 190 76 c 0
 211 76 228 59 228 38 c 0
 228 17 211 0 190 0 c 0
 169 0 152 17 152 38 c 0
289 170 m 0
 289 152 304 137 322 137 c 0
 340 137 355 152 355 170 c 0
 355 188 340 204 322 204 c 0
 304 204 289 188 289 170 c 0
284 170 m 0
 284 191 301 209 322 209 c 0
 343 209 360 191 360 170 c 0
 360 149 343 132 322 132 c 0
 301 132 284 149 284 170 c 0
157 170 m 0
 157 152 172 137 190 137 c 0
 208 137 223 152 223 170 c 0
 223 188 208 204 190 204 c 0
 172 204 157 188 157 170 c 0
152 170 m 0
 152 191 169 209 190 209 c 0
 211 209 228 191 228 170 c 0
 228 149 211 132 190 132 c 0
 169 132 152 149 152 170 c 0
289 302 m 0
 289 284 304 269 322 269 c 0
 340 269 355 284 355 302 c 0
 355 320 340 335 322 335 c 0
 304 335 289 320 289 302 c 0
284 302 m 0
 284 323 301 340 322 340 c 0
 343 340 360 323 360 302 c 0
 360 281 343 264 322 264 c 0
 301 264 284 281 284 302 c 0
152 302 m 0
 152 323 169 340 190 340 c 0
 211 340 228 323 228 302 c 0
 228 281 211 264 190 264 c 0
 169 264 152 281 152 302 c 0
EndSplineSet
Validated: 1
EndChar

StartChar: two
Encoding: 50 50 56
Width: 512
VWidth: 0
Flags: HW
LayerCount: 2
Fore
SplineSet
289 38 m 0
 289 20 304 5 322 5 c 0
 340 5 355 20 355 38 c 0
 355 56 340 71 322 71 c 0
 304 71 289 56 289 38 c 0
284 38 m 0
 284 59 301 76 322 76 c 0
 343 76 360 59 360 38 c 0
 360 17 343 0 322 0 c 0
 301 0 284 17 284 38 c 0
157 38 m 0
 157 20 172 5 190 5 c 0
 208 5 223 20 223 38 c 0
 223 56 208 71 190 71 c 0
 172 71 157 56 157 38 c 0
152 38 m 0
 152 59 169 76 190 76 c 0
 211 76 228 59 228 38 c 0
 228 17 211 0 190 0 c 0
 169 0 152 17 152 38 c 0
289 170 m 0
 289 152 304 137 322 137 c 0
 340 137 355 152 355 170 c 0
 355 188 340 204 322 204 c 0
 304 204 289 188 289 170 c 0
284 170 m 0
 284 191 301 209 322 209 c 0
 343 209 360 191 360 170 c 0
 360 149 343 132 322 132 c 0
 301 132 284 149 284 170 c 0
152 170 m 0
 152 191 169 209 190 209 c 0
 211 209 228 191 228 170 c 0
 228 149 211 132 190 132 c 0
 169 132 152 149 152 170 c 0
289 302 m 0
 289 284 304 269 322 269 c 0
 340 269 355 284 355 302 c 0
 355 320 340 335 322 335 c 0
 304 335 289 320 289 302 c 0
284 302 m 0
 284 323 301 340 322 340 c 0
 343 340 360 323 360 302 c 0
 360 281 343 264 322 264 c 0
 301 264 284 281 284 302 c 0
152 302 m 0
 152 323 169 340 190 340 c 0
 211 340 228 323 228 302 c 0
 228 281 211 264 190 264 c 0
 169 264 152 281 152 302 c 0
EndSplineSet
Validated: 1
EndChar

StartChar: three
Encoding: 51 51 57
Width: 512
VWidth: 0
Flags: HW
LayerCount: 2
Fore
SplineSet
289 38 m 0
 289 20 304 5 322 5 c 0
 340 5 355 20 355 38 c 0
 355 56 340 71 322 71 c 0
 304 71 289 56 289 38 c 0
284 38 m 0
 284 59 301 76 322 76 c 0
 343 76 360 59 360 38 c 0
 360 17 343 0 322 0 c 0
 301 0 284 17 284 38 c 0
157 38 m 0
 157 20 172 5 190 5 c 0
 208 5 223 20 223 38 c 0
 223 56 208 71 190 71 c 0
 172 71 157 56 157 38 c 0
152 38 m 0
 152 59 169 76 190 76 c 0
 211 76 228 59 228 38 c 0
 228 17 211 0 190 0 c 0
 169 0 152 17 152 38 c 0
289 170 m 0
 289 152 304 137 322 137 c 0
 340 137 355 152 355 170 c 0
 355 188 340 204 322 204 c 0
 304 204 289 188 289 170 c 0
284 170 m 0
 284 191 301 209 322 209 c 0
 343 209 360 191 360 170 c 0
 360 149 343 132 322 132 c 0
 301 132 284 149 284 170 c 0
157 170 m 0
 157 152 172 137 190 137 c 0
 208 137 223 152 223 170 c 0
 223 188 208 204 190 204 c 0
 172 204 157 188 157 170 c 0
152 170 m 0
 152 191 169 209 190 209 c 0
 211 209 228 191 228 170 c 0
 228 149 211 132 190 132 c 0
 169 132 152 149 152 170 c 0
284 302 m 0
 284 323 301 340 322 340 c 0
 343 340 360 323 360 302 c 0
 360 281 343 264 322 264 c 0
 301 264 284 281 284 302 c 0
152 302 m 0
 152 323 169 340 190 340 c 0
 211 340 228 323 228 302 c 0
 228 281 211 264 190 264 c 0
 169 264 152 281 152 302 c 0
EndSplineSet
Validated: 1
EndChar

StartChar: four
Encoding: 52 52 58
Width: 512
VWidth: 0
Flags: HW
LayerCount: 2
Fore
SplineSet
289 38 m 0
 289 20 304 5 322 5 c 0
 340 5 355 20 355 38 c 0
 355 56 340 71 322 71 c 0
 304 71 289 56 289 38 c 0
284 38 m 0
 284 59 301 76 322 76 c 0
 343 76 360 59 360 38 c 0
 360 17 343 0 322 0 c 0
 301 0 284 17 284 38 c 0
157 38 m 0
 157 20 172 5 190 5 c 0
 208 5 223 20 223 38 c 0
 223 56 208 71 190 71 c 0
 172 71 157 56 157 38 c 0
152 38 m 0
 152 59 169 76 190 76 c 0
 211 76 228 59 228 38 c 0
 228 17 211 0 190 0 c 0
 169 0 152 17 152 38 c 0
284 170 m 0
 284 191 301 209 322 209 c 0
 343 209 360 191 360 170 c 0
 360 149 343 132 322 132 c 0
 301 132 284 149 284 170 c 0
157 170 m 0
 157 152 172 137 190 137 c 0
 208 137 223 152 223 170 c 0
 223 188 208 204 190 204 c 0
 172 204 157 188 157 170 c 0
152 170 m 0
 152 191 169 209 190 209 c 0
 211 209 228 191 228 170 c 0
 228 149 211 132 190 132 c 0
 169 132 152 149 152 170 c 0
284 302 m 0
 284 323 301 340 322 340 c 0
 343 340 360 323 360 302 c 0
 360 281 343 264 322 264 c 0
 301 264 284 281 284 302 c 0
152 302 m 0
 152 323 169 340 190 340 c 0
 211 340 228 323 228 302 c 0
 228 281 211 264 190 264 c 0
 169 264 152 281 152 302 c 0
EndSplineSet
Validated: 1
EndChar

StartChar: five
Encoding: 53 53 59
Width: 512
VWidth: 0
Flags: HW
LayerCount: 2
Fore
SplineSet
289 38 m 0
 289 20 304 5 322 5 c 0
 340 5 355 20 355 38 c 0
 355 56 340 71 322 71 c 0
 304 71 289 56 289 38 c 0
284 38 m 0
 284 59 301 76 322 76 c 0
 343 76 360 59 360 38 c 0
 360 17 343 0 322 0 c 0
 301 0 284 17 284 38 c 0
157 38 m 0
 157 20 172 5 190 5 c 0
 208 5 223 20 223 38 c 0
 223 56 208 71 190 71 c 0
 172 71 157 56 157 38 c 0
152 38 m 0
 152 59 169 76 190 76 c 0
 211 76 228 59 228 38 c 0
 228 17 211 0 190 0 c 0
 169 0 152 17 152 38 c 0
284 170 m 0
 284 191 301 209 322 209 c 0
 343 209 360 191 360 170 c 0
 360 149 343 132 322 132 c 0
 301 132 284 149 284 170 c 0
157 170 m 0
 157 152 172 137 190 137 c 0
 208 137 223 152 223 170 c 0
 223 188 208 204 190 204 c 0
 172 204 157 188 157 170 c 0
152 170 m 0
 152 191 169 209 190 209 c 0
 211 209 228 191 228 170 c 0
 228 149 211 132 190 132 c 0
 169 132 152 149 152 170 c 0
289 302 m 0
 289 284 304 269 322 269 c 0
 340 269 355 284 355 302 c 0
 355 320 340 335 322 335 c 0
 304 335 289 320 289 302 c 0
284 302 m 0
 284 323 301 340 322 340 c 0
 343 340 360 323 360 302 c 0
 360 281 343 264 322 264 c 0
 301 264 284 281 284 302 c 0
152 302 m 0
 152 323 169 340 190 340 c 0
 211 340 228 323 228 302 c 0
 228 281 211 264 190 264 c 0
 169 264 152 281 152 302 c 0
EndSplineSet
Validated: 1
EndChar

StartChar: six
Encoding: 54 54 60
Width: 512
VWidth: 0
Flags: HW
LayerCount: 2
Fore
SplineSet
289 38 m 0
 289 20 304 5 322 5 c 0
 340 5 355 20 355 38 c 0
 355 56 340 71 322 71 c 0
 304 71 289 56 289 38 c 0
284 38 m 0
 284 59 301 76 322 76 c 0
 343 76 360 59 360 38 c 0
 360 17 343 0 322 0 c 0
 301 0 284 17 284 38 c 0
157 38 m 0
 157 20 172 5 190 5 c 0
 208 5 223 20 223 38 c 0
 223 56 208 71 190 71 c 0
 172 71 157 56 157 38 c 0
152 38 m 0
 152 59 169 76 190 76 c 0
 211 76 228 59 228 38 c 0
 228 17 211 0 190 0 c 0
 169 0 152 17 152 38 c 0
289 170 m 0
 289 152 304 137 322 137 c 0
 340 137 355 152 355 170 c 0
 355 188 340 204 322 204 c 0
 304 204 289 188 289 170 c 0
284 170 m 0
 284 191 301 209 322 209 c 0
 343 209 360 191 360 170 c 0
 360 149 343 132 322 132 c 0
 301 132 284 149 284 170 c 0
152 170 m 0
 152 191 169 209 190 209 c 0
 211 209 228 191 228 170 c 0
 228 149 211 132 190 132 c 0
 169 132 152 149 152 170 c 0
284 302 m 0
 284 323 301 340 322 340 c 0
 343 340 360 323 360 302 c 0
 360 281 343 264 322 264 c 0
 301 264 284 281 284 302 c 0
152 302 m 0
 152 323 169 340 190 340 c 0
 211 340 228 323 228 302 c 0
 228 281 211 264 190 264 c 0
 169 264 152 281 152 302 c 0
EndSplineSet
Validated: 1
EndChar

StartChar: seven
Encoding: 55 55 61
Width: 512
VWidth: 0
Flags: HW
LayerCount: 2
Fore
SplineSet
289 38 m 0
 289 20 304 5 322 5 c 0
 340 5 355 20 355 38 c 0
 355 56 340 71 322 71 c 0
 304 71 289 56 289 38 c 0
284 38 m 0
 284 59 301 76 322 76 c 0
 343 76 360 59 360 38 c 0
 360 17 343 0 322 0 c 0
 301 0 284 17 284 38 c 0
157 38 m 0
 157 20 172 5 190 5 c 0
 208 5 223 20 223 38 c 0
 223 56 208 71 190 71 c 0
 172 71 157 56 157 38 c 0
152 38 m 0
 152 59 169 76 190 76 c 0
 211 76 228 59 228 38 c 0
 228 17 211 0 190 0 c 0
 169 0 152 17 152 38 c 0
284 170 m 0
 284 191 301 209 322 209 c 0
 343 209 360 191 360 170 c 0
 360 149 343 132 322 132 c 0
 301 132 284 149 284 170 c 0
152 170 m 0
 152 191 169 209 190 209 c 0
 211 209 228 191 228 170 c 0
 228 149 211 132 190 132 c 0
 169 132 152 149 152 170 c 0
284 302 m 0
 284 323 301 340 322 340 c 0
 343 340 360 323 360 302 c 0
 360 281 343 264 322 264 c 0
 301 264 284 281 284 302 c 0
152 302 m 0
 152 323 169 340 190 340 c 0
 211 340 228 323 228 302 c 0
 228 281 211 264 190 264 c 0
 169 264 152 281 152 302 c 0
EndSplineSet
Validated: 1
EndChar

StartChar: eight
Encoding: 56 56 62
Width: 512
VWidth: 0
Flags: HW
LayerCount: 2
Fore
SplineSet
289 38 m 0
 289 20 304 5 322 5 c 0
 340 5 355 20 355 38 c 0
 355 56 340 71 322 71 c 0
 304 71 289 56 289 38 c 0
284 38 m 0
 284 59 301 76 322 76 c 0
 343 76 360 59 360 38 c 0
 360 17 343 0 322 0 c 0
 301 0 284 17 284 38 c 0
157 38 m 0
 157 20 172 5 190 5 c 0
 208 5 223 20 223 38 c 0
 223 56 208 71 190 71 c 0
 172 71 157 56 157 38 c 0
152 38 m 0
 152 59 169 76 190 76 c 0
 211 76 228 59 228 38 c 0
 228 17 211 0 190 0 c 0
 169 0 152 17 152 38 c 0
284 170 m 0
 284 191 301 209 322 209 c 0
 343 209 360 191 360 170 c 0
 360 149 343 132 322 132 c 0
 301 132 284 149 284 170 c 0
152 170 m 0
 152 191 169 209 190 209 c 0
 211 209 228 191 228 170 c 0
 228 149 211 132 190 132 c 0
 169 132 152 149 152 170 c 0
289 302 m 0
 289 284 304 269 322 269 c 0
 340 269 355 284 355 302 c 0
 355 320 340 335 322 335 c 0
 304 335 289 320 289 302 c 0
284 302 m 0
 284 323 301 340 322 340 c 0
 343 340 360 323 360 302 c 0
 360 281 343 264 322 264 c 0
 301 264 284 281 284 302 c 0
152 302 m 0
 152 323 169 340 190 340 c 0
 211 340 228 323 228 302 c 0
 228 281 211 264 190 264 c 0
 169 264 152 281 152 302 c 0
EndSplineSet
Validated: 1
EndChar

StartChar: nine
Encoding: 57 57 63
Width: 512
VWidth: 0
Flags: HW
LayerCount: 2
Fore
SplineSet
289 38 m 0
 289 20 304 5 322 5 c 0
 340 5 355 20 355 38 c 0
 355 56 340 71 322 71 c 0
 304 71 289 56 289 38 c 0
284 38 m 0
 284 59 301 76 322 76 c 0
 343 76 360 59 360 38 c 0
 360 17 343 0 322 0 c 0
 301 0 284 17 284 38 c 0
157 38 m 0
 157 20 172 5 190 5 c 0
 208 5 223 20 223 38 c 0
 223 56 208 71 190 71 c 0
 172 71 157 56 157 38 c 0
152 38 m 0
 152 59 169 76 190 76 c 0
 211 76 228 59 228 38 c 0
 228 17 211 0 190 0 c 0
 169 0 152 17 152 38 c 0
289 170 m 0
 289 152 304 137 322 137 c 0
 340 137 355 152 355 170 c 0
 355 188 340 204 322 204 c 0
 304 204 289 188 289 170 c 0
284 170 m 0
 284 191 301 209 322 209 c 0
 343 209 360 191 360 170 c 0
 360 149 343 132 322 132 c 0
 301 132 284 149 284 170 c 0
152 170 m 0
 152 191 169 209 190 209 c 0
 211 209 228 191 228 170 c 0
 228 149 211 132 190 132 c 0
 169 132 152 149 152 170 c 0
284 302 m 0
 284 323 301 340 322 340 c 0
 343 340 360 323 360 302 c 0
 360 281 343 264 322 264 c 0
 301 264 284 281 284 302 c 0
157 302 m 0
 157 284 172 269 190 269 c 0
 208 269 223 284 223 302 c 0
 223 320 208 335 190 335 c 0
 172 335 157 320 157 302 c 0
152 302 m 0
 152 323 169 340 190 340 c 0
 211 340 228 323 228 302 c 0
 228 281 211 264 190 264 c 0
 169 264 152 281 152 302 c 0
EndSplineSet
Validated: 1
EndChar

StartChar: comma
Encoding: 44 44 64
Width: 512
VWidth: 0
Flags: HW
LayerCount: 2
Fore
SplineSet
289 38 m 0
 289 20 304 5 322 5 c 0
 340 5 355 20 355 38 c 0
 355 56 340 71 322 71 c 0
 304 71 289 56 289 38 c 0
284 38 m 0
 284 59 301 76 322 76 c 0
 343 76 360 59 360 38 c 0
 360 17 343 0 322 0 c 0
 301 0 284 17 284 38 c 0
157 38 m 0
 157 20 172 5 190 5 c 0
 208 5 223 20 223 38 c 0
 223 56 208 71 190 71 c 0
 172 71 157 56 157 38 c 0
152 38 m 0
 152 59 169 76 190 76 c 0
 211 76 228 59 228 38 c 0
 228 17 211 0 190 0 c 0
 169 0 152 17 152 38 c 0
289 170 m 0
 289 152 304 137 322 137 c 0
 340 137 355 152 355 170 c 0
 355 188 340 204 322 204 c 0
 304 204 289 188 289 170 c 0
284 170 m 0
 284 191 301 209 322 209 c 0
 343 209 360 191 360 170 c 0
 360 149 343 132 322 132 c 0
 301 132 284 149 284 170 c 0
152 170 m 0
 152 191 169 209 190 209 c 0
 211 209 228 191 228 170 c 0
 228 149 211 132 190 132 c 0
 169 132 152 149 152 170 c 0
289 302 m 0
 289 284 304 269 322 269 c 0
 340 269 355 284 355 302 c 0
 355 320 340 335 322 335 c 0
 304 335 289 320 289 302 c 0
284 302 m 0
 284 323 301 340 322 340 c 0
 343 340 360 323 360 302 c 0
 360 281 343 264 322 264 c 0
 301 264 284 281 284 302 c 0
157 302 m 0
 157 284 172 269 190 269 c 0
 208 269 223 284 223 302 c 0
 223 320 208 335 190 335 c 0
 172 335 157 320 157 302 c 0
152 302 m 0
 152 323 169 340 190 340 c 0
 211 340 228 323 228 302 c 0
 228 281 211 264 190 264 c 0
 169 264 152 281 152 302 c 0
EndSplineSet
Validated: 1
EndChar

StartChar: colon
Encoding: 58 58 65
Width: 512
VWidth: 0
Flags: HW
LayerCount: 2
Fore
SplineSet
289 38 m 0
 289 20 304 5 322 5 c 0
 340 5 355 20 355 38 c 0
 355 56 340 71 322 71 c 0
 304 71 289 56 289 38 c 0
284 38 m 0
 284 59 301 76 322 76 c 0
 343 76 360 59 360 38 c 0
 360 17 343 0 322 0 c 0
 301 0 284 17 284 38 c 0
157 38 m 0
 157 20 172 5 190 5 c 0
 208 5 223 20 223 38 c 0
 223 56 208 71 190 71 c 0
 172 71 157 56 157 38 c 0
152 38 m 0
 152 59 169 76 190 76 c 0
 211 76 228 59 228 38 c 0
 228 17 211 0 190 0 c 0
 169 0 152 17 152 38 c 0
284 170 m 0
 284 191 301 209 322 209 c 0
 343 209 360 191 360 170 c 0
 360 149 343 132 322 132 c 0
 301 132 284 149 284 170 c 0
152 170 m 0
 152 191 169 209 190 209 c 0
 211 209 228 191 228 170 c 0
 228 149 211 132 190 132 c 0
 169 132 152 149 152 170 c 0
289 302 m 0
 289 284 304 269 322 269 c 0
 340 269 355 284 355 302 c 0
 355 320 340 335 322 335 c 0
 304 335 289 320 289 302 c 0
284 302 m 0
 284 323 301 340 322 340 c 0
 343 340 360 323 360 302 c 0
 360 281 343 264 322 264 c 0
 301 264 284 281 284 302 c 0
157 302 m 0
 157 284 172 269 190 269 c 0
 208 269 223 284 223 302 c 0
 223 320 208 335 190 335 c 0
 172 335 157 320 157 302 c 0
152 302 m 0
 152 323 169 340 190 340 c 0
 211 340 228 323 228 302 c 0
 228 281 211 264 190 264 c 0
 169 264 152 281 152 302 c 0
EndSplineSet
Validated: 1
EndChar

StartChar: quotesingle
Encoding: 39 39 66
Width: 512
VWidth: 0
Flags: HW
LayerCount: 2
Fore
SplineSet
289 38 m 0
 289 20 304 5 322 5 c 0
 340 5 355 20 355 38 c 0
 355 56 340 71 322 71 c 0
 304 71 289 56 289 38 c 0
284 38 m 0
 284 59 301 76 322 76 c 0
 343 76 360 59 360 38 c 0
 360 17 343 0 322 0 c 0
 301 0 284 17 284 38 c 0
152 38 m 0
 152 59 169 76 190 76 c 0
 211 76 228 59 228 38 c 0
 228 17 211 0 190 0 c 0
 169 0 152 17 152 38 c 0
289 170 m 0
 289 152 304 137 322 137 c 0
 340 137 355 152 355 170 c 0
 355 188 340 204 322 204 c 0
 304 204 289 188 289 170 c 0
284 170 m 0
 284 191 301 209 322 209 c 0
 343 209 360 191 360 170 c 0
 360 149 343 132 322 132 c 0
 301 132 284 149 284 170 c 0
157 170 m 0
 157 152 172 137 190 137 c 0
 208 137 223 152 223 170 c 0
 223 188 208 204 190 204 c 0
 172 204 157 188 157 170 c 0
152 170 m 0
 152 191 169 209 190 209 c 0
 211 209 228 191 228 170 c 0
 228 149 211 132 190 132 c 0
 169 132 152 149 152 170 c 0
289 302 m 0
 289 284 304 269 322 269 c 0
 340 269 355 284 355 302 c 0
 355 320 340 335 322 335 c 0
 304 335 289 320 289 302 c 0
284 302 m 0
 284 323 301 340 322 340 c 0
 343 340 360 323 360 302 c 0
 360 281 343 264 322 264 c 0
 301 264 284 281 284 302 c 0
157 302 m 0
 157 284 172 269 190 269 c 0
 208 269 223 284 223 302 c 0
 223 320 208 335 190 335 c 0
 172 335 157 320 157 302 c 0
152 302 m 0
 152 323 169 340 190 340 c 0
 211 340 228 323 228 302 c 0
 228 281 211 264 190 264 c 0
 169 264 152 281 152 302 c 0
EndSplineSet
Validated: 1
EndChar

StartChar: semicolon
Encoding: 59 59 67
Width: 512
VWidth: 0
Flags: HW
LayerCount: 2
Fore
SplineSet
289 38 m 0
 289 20 304 5 322 5 c 0
 340 5 355 20 355 38 c 0
 355 56 340 71 322 71 c 0
 304 71 289 56 289 38 c 0
284 38 m 0
 284 59 301 76 322 76 c 0
 343 76 360 59 360 38 c 0
 360 17 343 0 322 0 c 0
 301 0 284 17 284 38 c 0
152 38 m 0
 152 59 169 76 190 76 c 0
 211 76 228 59 228 38 c 0
 228 17 211 0 190 0 c 0
 169 0 152 17 152 38 c 0
289 170 m 0
 289 152 304 137 322 137 c 0
 340 137 355 152 355 170 c 0
 355 188 340 204 322 204 c 0
 304 204 289 188 289 170 c 0
284 170 m 0
 284 191 301 209 322 209 c 0
 343 209 360 191 360 170 c 0
 360 149 343 132 322 132 c 0
 301 132 284 149 284 170 c 0
152 170 m 0
 152 191 169 209 190 209 c 0
 211 209 228 191 228 170 c 0
 228 149 211 132 190 132 c 0
 169 132 152 149 152 170 c 0
289 302 m 0
 289 284 304 269 322 269 c 0
 340 269 355 284 355 302 c 0
 355 320 340 335 322 335 c 0
 304 335 289 320 289 302 c 0
284 302 m 0
 284 323 301 340 322 340 c 0
 343 340 360 323 360 302 c 0
 360 281 343 264 322 264 c 0
 301 264 284 281 284 302 c 0
157 302 m 0
 157 284 172 269 190 269 c 0
 208 269 223 284 223 302 c 0
 223 320 208 335 190 335 c 0
 172 335 157 320 157 302 c 0
152 302 m 0
 152 323 169 340 190 340 c 0
 211 340 228 323 228 302 c 0
 228 281 211 264 190 264 c 0
 169 264 152 281 152 302 c 0
EndSplineSet
Validated: 1
EndChar

StartChar: hyphen
Encoding: 45 45 68
Width: 512
VWidth: 0
Flags: HW
LayerCount: 2
Fore
SplineSet
284 38 m 0
 284 59 301 76 322 76 c 0
 343 76 360 59 360 38 c 0
 360 17 343 0 322 0 c 0
 301 0 284 17 284 38 c 0
152 38 m 0
 152 59 169 76 190 76 c 0
 211 76 228 59 228 38 c 0
 228 17 211 0 190 0 c 0
 169 0 152 17 152 38 c 0
289 170 m 0
 289 152 304 137 322 137 c 0
 340 137 355 152 355 170 c 0
 355 188 340 204 322 204 c 0
 304 204 289 188 289 170 c 0
284 170 m 0
 284 191 301 209 322 209 c 0
 343 209 360 191 360 170 c 0
 360 149 343 132 322 132 c 0
 301 132 284 149 284 170 c 0
157 170 m 0
 157 152 172 137 190 137 c 0
 208 137 223 152 223 170 c 0
 223 188 208 204 190 204 c 0
 172 204 157 188 157 170 c 0
152 170 m 0
 152 191 169 209 190 209 c 0
 211 209 228 191 228 170 c 0
 228 149 211 132 190 132 c 0
 169 132 152 149 152 170 c 0
289 302 m 0
 289 284 304 269 322 269 c 0
 340 269 355 284 355 302 c 0
 355 320 340 335 322 335 c 0
 304 335 289 320 289 302 c 0
284 302 m 0
 284 323 301 340 322 340 c 0
 343 340 360 323 360 302 c 0
 360 281 343 264 322 264 c 0
 301 264 284 281 284 302 c 0
157 302 m 0
 157 284 172 269 190 269 c 0
 208 269 223 284 223 302 c 0
 223 320 208 335 190 335 c 0
 172 335 157 320 157 302 c 0
152 302 m 0
 152 323 169 340 190 340 c 0
 211 340 228 323 228 302 c 0
 228 281 211 264 190 264 c 0
 169 264 152 281 152 302 c 0
EndSplineSet
Validated: 1
EndChar

StartChar: period
Encoding: 46 46 69
Width: 512
VWidth: 0
Flags: HW
LayerCount: 2
Fore
SplineSet
284 38 m 0
 284 59 301 76 322 76 c 0
 343 76 360 59 360 38 c 0
 360 17 343 0 322 0 c 0
 301 0 284 17 284 38 c 0
157 38 m 0
 157 20 172 5 190 5 c 0
 208 5 223 20 223 38 c 0
 223 56 208 71 190 71 c 0
 172 71 157 56 157 38 c 0
152 38 m 0
 152 59 169 76 190 76 c 0
 211 76 228 59 228 38 c 0
 228 17 211 0 190 0 c 0
 169 0 152 17 152 38 c 0
284 170 m 0
 284 191 301 209 322 209 c 0
 343 209 360 191 360 170 c 0
 360 149 343 132 322 132 c 0
 301 132 284 149 284 170 c 0
152 170 m 0
 152 191 169 209 190 209 c 0
 211 209 228 191 228 170 c 0
 228 149 211 132 190 132 c 0
 169 132 152 149 152 170 c 0
289 302 m 0
 289 284 304 269 322 269 c 0
 340 269 355 284 355 302 c 0
 355 320 340 335 322 335 c 0
 304 335 289 320 289 302 c 0
284 302 m 0
 284 323 301 340 322 340 c 0
 343 340 360 323 360 302 c 0
 360 281 343 264 322 264 c 0
 301 264 284 281 284 302 c 0
157 302 m 0
 157 284 172 269 190 269 c 0
 208 269 223 284 223 302 c 0
 223 320 208 335 190 335 c 0
 172 335 157 320 157 302 c 0
152 302 m 0
 152 323 169 340 190 340 c 0
 211 340 228 323 228 302 c 0
 228 281 211 264 190 264 c 0
 169 264 152 281 152 302 c 0
EndSplineSet
Validated: 1
EndChar

StartChar: exclam
Encoding: 33 33 70
Width: 512
VWidth: 0
Flags: HW
LayerCount: 2
Fore
SplineSet
289 38 m 0
 289 20 304 5 322 5 c 0
 340 5 355 20 355 38 c 0
 355 56 340 71 322 71 c 0
 304 71 289 56 289 38 c 0
284 38 m 0
 284 59 301 76 322 76 c 0
 343 76 360 59 360 38 c 0
 360 17 343 0 322 0 c 0
 301 0 284 17 284 38 c 0
152 38 m 0
 152 59 169 76 190 76 c 0
 211 76 228 59 228 38 c 0
 228 17 211 0 190 0 c 0
 169 0 152 17 152 38 c 0
284 170 m 0
 284 191 301 209 322 209 c 0
 343 209 360 191 360 170 c 0
 360 149 343 132 322 132 c 0
 301 132 284 149 284 170 c 0
152 170 m 0
 152 191 169 209 190 209 c 0
 211 209 228 191 228 170 c 0
 228 149 211 132 190 132 c 0
 169 132 152 149 152 170 c 0
289 302 m 0
 289 284 304 269 322 269 c 0
 340 269 355 284 355 302 c 0
 355 320 340 335 322 335 c 0
 304 335 289 320 289 302 c 0
284 302 m 0
 284 323 301 340 322 340 c 0
 343 340 360 323 360 302 c 0
 360 281 343 264 322 264 c 0
 301 264 284 281 284 302 c 0
157 302 m 0
 157 284 172 269 190 269 c 0
 208 269 223 284 223 302 c 0
 223 320 208 335 190 335 c 0
 172 335 157 320 157 302 c 0
152 302 m 0
 152 323 169 340 190 340 c 0
 211 340 228 323 228 302 c 0
 228 281 211 264 190 264 c 0
 169 264 152 281 152 302 c 0
EndSplineSet
Validated: 1
EndChar

StartChar: question
Encoding: 63 63 71
Width: 512
VWidth: 0
Flags: HW
LayerCount: 2
Fore
SplineSet
284 38 m 0
 284 59 301 76 322 76 c 0
 343 76 360 59 360 38 c 0
 360 17 343 0 322 0 c 0
 301 0 284 17 284 38 c 0
152 38 m 0
 152 59 169 76 190 76 c 0
 211 76 228 59 228 38 c 0
 228 17 211 0 190 0 c 0
 169 0 152 17 152 38 c 0
289 170 m 0
 289 152 304 137 322 137 c 0
 340 137 355 152 355 170 c 0
 355 188 340 204 322 204 c 0
 304 204 289 188 289 170 c 0
284 170 m 0
 284 191 301 209 322 209 c 0
 343 209 360 191 360 170 c 0
 360 149 343 132 322 132 c 0
 301 132 284 149 284 170 c 0
152 170 m 0
 152 191 169 209 190 209 c 0
 211 209 228 191 228 170 c 0
 228 149 211 132 190 132 c 0
 169 132 152 149 152 170 c 0
289 302 m 0
 289 284 304 269 322 269 c 0
 340 269 355 284 355 302 c 0
 355 320 340 335 322 335 c 0
 304 335 289 320 289 302 c 0
284 302 m 0
 284 323 301 340 322 340 c 0
 343 340 360 323 360 302 c 0
 360 281 343 264 322 264 c 0
 301 264 284 281 284 302 c 0
157 302 m 0
 157 284 172 269 190 269 c 0
 208 269 223 284 223 302 c 0
 223 320 208 335 190 335 c 0
 172 335 157 320 157 302 c 0
152 302 m 0
 152 323 169 340 190 340 c 0
 211 340 228 323 228 302 c 0
 228 281 211 264 190 264 c 0
 169 264 152 281 152 302 c 0
EndSplineSet
Validated: 1
EndChar

StartChar: parenleft
Encoding: 40 40 72
Width: 512
VWidth: 0
Flags: HW
LayerCount: 2
Fore
SplineSet
284 38 m 0
 284 59 301 76 322 76 c 0
 343 76 360 59 360 38 c 0
 360 17 343 0 322 0 c 0
 301 0 284 17 284 38 c 0
152 38 m 0
 152 59 169 76 190 76 c 0
 211 76 228 59 228 38 c 0
 228 17 211 0 190 0 c 0
 169 0 152 17 152 38 c 0
284 170 m 0
 284 191 301 209 322 209 c 0
 343 209 360 191 360 170 c 0
 360 149 343 132 322 132 c 0
 301 132 284 149 284 170 c 0
152 170 m 0
 152 191 169 209 190 209 c 0
 211 209 228 191 228 170 c 0
 228 149 211 132 190 132 c 0
 169 132 152 149 152 170 c 0
289 302 m 0
 289 284 304 269 322 269 c 0
 340 269 355 284 355 302 c 0
 355 320 340 335 322 335 c 0
 304 335 289 320 289 302 c 0
284 302 m 0
 284 323 301 340 322 340 c 0
 343 340 360 323 360 302 c 0
 360 281 343 264 322 264 c 0
 301 264 284 281 284 302 c 0
157 302 m 0
 157 284 172 269 190 269 c 0
 208 269 223 284 223 302 c 0
 223 320 208 335 190 335 c 0
 172 335 157 320 157 302 c 0
152 302 m 0
 152 323 169 340 190 340 c 0
 211 340 228 323 228 302 c 0
 228 281 211 264 190 264 c 0
 169 264 152 281 152 302 c 0
EndSplineSet
Validated: 1
EndChar

StartChar: parenright
Encoding: 41 41 73
Width: 512
VWidth: 0
Flags: HW
LayerCount: 2
Fore
SplineSet
284 38 m 0
 284 59 301 76 322 76 c 0
 343 76 360 59 360 38 c 0
 360 17 343 0 322 0 c 0
 301 0 284 17 284 38 c 0
152 38 m 0
 152 59 169 76 190 76 c 0
 211 76 228 59 228 38 c 0
 228 17 211 0 190 0 c 0
 169 0 152 17 152 38 c 0
284 170 m 0
 284 191 301 209 322 209 c 0
 343 209 360 191 360 170 c 0
 360 149 343 132 322 132 c 0
 301 132 284 149 284 170 c 0
152 170 m 0
 152 191 169 209 190 209 c 0
 211 209 228 191 228 170 c 0
 228 149 211 132 190 132 c 0
 169 132 152 149 152 170 c 0
289 302 m 0
 289 284 304 269 322 269 c 0
 340 269 355 284 355 302 c 0
 355 320 340 335 322 335 c 0
 304 335 289 320 289 302 c 0
284 302 m 0
 284 323 301 340 322 340 c 0
 343 340 360 323 360 302 c 0
 360 281 343 264 322 264 c 0
 301 264 284 281 284 302 c 0
157 302 m 0
 157 284 172 269 190 269 c 0
 208 269 223 284 223 302 c 0
 223 320 208 335 190 335 c 0
 172 335 157 320 157 302 c 0
152 302 m 0
 152 323 169 340 190 340 c 0
 211 340 228 323 228 302 c 0
 228 281 211 264 190 264 c 0
 169 264 152 281 152 302 c 0
EndSplineSet
Validated: 1
EndChar

StartChar: bracketleft
Encoding: 91 91 74
Width: 512
VWidth: 0
Flags: HW
LayerCount: 2
Fore
SplineSet
284 38 m 0
 284 59 301 76 322 76 c 0
 343 76 360 59 360 38 c 0
 360 17 343 0 322 0 c 0
 301 0 284 17 284 38 c 0
152 38 m 0
 152 59 169 76 190 76 c 0
 211 76 228 59 228 38 c 0
 228 17 211 0 190 0 c 0
 169 0 152 17 152 38 c 0
284 170 m 0
 284 191 301 209 322 209 c 0
 343 209 360 191 360 170 c 0
 360 149 343 132 322 132 c 0
 301 132 284 149 284 170 c 0
152 170 m 0
 152 191 169 209 190 209 c 0
 211 209 228 191 228 170 c 0
 228 149 211 132 190 132 c 0
 169 132 152 149 152 170 c 0
289 302 m 0
 289 284 304 269 322 269 c 0
 340 269 355 284 355 302 c 0
 355 320 340 335 322 335 c 0
 304 335 289 320 289 302 c 0
284 302 m 0
 284 323 301 340 322 340 c 0
 343 340 360 323 360 302 c 0
 360 281 343 264 322 264 c 0
 301 264 284 281 284 302 c 0
157 302 m 0
 157 284 172 269 190 269 c 0
 208 269 223 284 223 302 c 0
 223 320 208 335 190 335 c 0
 172 335 157 320 157 302 c 0
152 302 m 0
 152 323 169 340 190 340 c 0
 211 340 228 323 228 302 c 0
 228 281 211 264 190 264 c 0
 169 264 152 281 152 302 c 0
EndSplineSet
Validated: 1
EndChar

StartChar: bracketright
Encoding: 93 93 75
Width: 512
VWidth: 0
Flags: HW
LayerCount: 2
Fore
SplineSet
284 38 m 0
 284 59 301 76 322 76 c 0
 343 76 360 59 360 38 c 0
 360 17 343 0 322 0 c 0
 301 0 284 17 284 38 c 0
152 38 m 0
 152 59 169 76 190 76 c 0
 211 76 228 59 228 38 c 0
 228 17 211 0 190 0 c 0
 169 0 152 17 152 38 c 0
284 170 m 0
 284 191 301 209 322 209 c 0
 343 209 360 191 360 170 c 0
 360 149 343 132 322 132 c 0
 301 132 284 149 284 170 c 0
152 170 m 0
 152 191 169 209 190 209 c 0
 211 209 228 191 228 170 c 0
 228 149 211 132 190 132 c 0
 169 132 152 149 152 170 c 0
289 302 m 0
 289 284 304 269 322 269 c 0
 340 269 355 284 355 302 c 0
 355 320 340 335 322 335 c 0
 304 335 289 320 289 302 c 0
284 302 m 0
 284 323 301 340 322 340 c 0
 343 340 360 323 360 302 c 0
 360 281 343 264 322 264 c 0
 301 264 284 281 284 302 c 0
157 302 m 0
 157 284 172 269 190 269 c 0
 208 269 223 284 223 302 c 0
 223 320 208 335 190 335 c 0
 172 335 157 320 157 302 c 0
152 302 m 0
 152 323 169 340 190 340 c 0
 211 340 228 323 228 302 c 0
 228 281 211 264 190 264 c 0
 169 264 152 281 152 302 c 0
EndSplineSet
Validated: 1
EndChar

StartChar: braceright
Encoding: 125 125 76
Width: 512
VWidth: 0
Flags: HW
LayerCount: 2
Fore
SplineSet
284 38 m 0
 284 59 301 76 322 76 c 0
 343 76 360 59 360 38 c 0
 360 17 343 0 322 0 c 0
 301 0 284 17 284 38 c 0
152 38 m 0
 152 59 169 76 190 76 c 0
 211 76 228 59 228 38 c 0
 228 17 211 0 190 0 c 0
 169 0 152 17 152 38 c 0
284 170 m 0
 284 191 301 209 322 209 c 0
 343 209 360 191 360 170 c 0
 360 149 343 132 322 132 c 0
 301 132 284 149 284 170 c 0
152 170 m 0
 152 191 169 209 190 209 c 0
 211 209 228 191 228 170 c 0
 228 149 211 132 190 132 c 0
 169 132 152 149 152 170 c 0
289 302 m 0
 289 284 304 269 322 269 c 0
 340 269 355 284 355 302 c 0
 355 320 340 335 322 335 c 0
 304 335 289 320 289 302 c 0
284 302 m 0
 284 323 301 340 322 340 c 0
 343 340 360 323 360 302 c 0
 360 281 343 264 322 264 c 0
 301 264 284 281 284 302 c 0
157 302 m 0
 157 284 172 269 190 269 c 0
 208 269 223 284 223 302 c 0
 223 320 208 335 190 335 c 0
 172 335 157 320 157 302 c 0
152 302 m 0
 152 323 169 340 190 340 c 0
 211 340 228 323 228 302 c 0
 228 281 211 264 190 264 c 0
 169 264 152 281 152 302 c 0
EndSplineSet
Validated: 1
EndChar

StartChar: braceleft
Encoding: 123 123 77
Width: 512
VWidth: 0
Flags: HW
LayerCount: 2
Fore
SplineSet
284 38 m 0
 284 59 301 76 322 76 c 0
 343 76 360 59 360 38 c 0
 360 17 343 0 322 0 c 0
 301 0 284 17 284 38 c 0
152 38 m 0
 152 59 169 76 190 76 c 0
 211 76 228 59 228 38 c 0
 228 17 211 0 190 0 c 0
 169 0 152 17 152 38 c 0
284 170 m 0
 284 191 301 209 322 209 c 0
 343 209 360 191 360 170 c 0
 360 149 343 132 322 132 c 0
 301 132 284 149 284 170 c 0
152 170 m 0
 152 191 169 209 190 209 c 0
 211 209 228 191 228 170 c 0
 228 149 211 132 190 132 c 0
 169 132 152 149 152 170 c 0
289 302 m 0
 289 284 304 269 322 269 c 0
 340 269 355 284 355 302 c 0
 355 320 340 335 322 335 c 0
 304 335 289 320 289 302 c 0
284 302 m 0
 284 323 301 340 322 340 c 0
 343 340 360 323 360 302 c 0
 360 281 343 264 322 264 c 0
 301 264 284 281 284 302 c 0
157 302 m 0
 157 284 172 269 190 269 c 0
 208 269 223 284 223 302 c 0
 223 320 208 335 190 335 c 0
 172 335 157 320 157 302 c 0
152 302 m 0
 152 323 169 340 190 340 c 0
 211 340 228 323 228 302 c 0
 228 281 211 264 190 264 c 0
 169 264 152 281 152 302 c 0
EndSplineSet
Validated: 1
EndChar

StartChar: slash
Encoding: 47 47 78
Width: 512
VWidth: 0
Flags: HW
LayerCount: 2
Fore
SplineSet
289 38 m 0
 289 20 304 5 322 5 c 0
 340 5 355 20 355 38 c 0
 355 56 340 71 322 71 c 0
 304 71 289 56 289 38 c 0
284 38 m 0
 284 59 301 76 322 76 c 0
 343 76 360 59 360 38 c 0
 360 17 343 0 322 0 c 0
 301 0 284 17 284 38 c 0
152 38 m 0
 152 59 169 76 190 76 c 0
 211 76 228 59 228 38 c 0
 228 17 211 0 190 0 c 0
 169 0 152 17 152 38 c 0
289 170 m 0
 289 152 304 137 322 137 c 0
 340 137 355 152 355 170 c 0
 355 188 340 204 322 204 c 0
 304 204 289 188 289 170 c 0
284 170 m 0
 284 191 301 209 322 209 c 0
 343 209 360 191 360 170 c 0
 360 149 343 132 322 132 c 0
 301 132 284 149 284 170 c 0
157 170 m 0
 157 152 172 137 190 137 c 0
 208 137 223 152 223 170 c 0
 223 188 208 204 190 204 c 0
 172 204 157 188 157 170 c 0
152 170 m 0
 152 191 169 209 190 209 c 0
 211 209 228 191 228 170 c 0
 228 149 211 132 190 132 c 0
 169 132 152 149 152 170 c 0
284 302 m 0
 284 323 301 340 322 340 c 0
 343 340 360 323 360 302 c 0
 360 281 343 264 322 264 c 0
 301 264 284 281 284 302 c 0
157 302 m 0
 157 284 172 269 190 269 c 0
 208 269 223 284 223 302 c 0
 223 320 208 335 190 335 c 0
 172 335 157 320 157 302 c 0
152 302 m 0
 152 323 169 340 190 340 c 0
 211 340 228 323 228 302 c 0
 228 281 211 264 190 264 c 0
 169 264 152 281 152 302 c 0
EndSplineSet
Validated: 1
EndChar

StartChar: less
Encoding: 60 60 79
Width: 512
VWidth: 0
Flags: HW
LayerCount: 2
Fore
SplineSet
284 38 m 0
 284 59 301 76 322 76 c 0
 343 76 360 59 360 38 c 0
 360 17 343 0 322 0 c 0
 301 0 284 17 284 38 c 0
152 38 m 0
 152 59 169 76 190 76 c 0
 211 76 228 59 228 38 c 0
 228 17 211 0 190 0 c 0
 169 0 152 17 152 38 c 0
284 170 m 0
 284 191 301 209 322 209 c 0
 343 209 360 191 360 170 c 0
 360 149 343 132 322 132 c 0
 301 132 284 149 284 170 c 0
152 170 m 0
 152 191 169 209 190 209 c 0
 211 209 228 191 228 170 c 0
 228 149 211 132 190 132 c 0
 169 132 152 149 152 170 c 0
289 302 m 0
 289 284 304 269 322 269 c 0
 340 269 355 284 355 302 c 0
 355 320 340 335 322 335 c 0
 304 335 289 320 289 302 c 0
284 302 m 0
 284 323 301 340 322 340 c 0
 343 340 360 323 360 302 c 0
 360 281 343 264 322 264 c 0
 301 264 284 281 284 302 c 0
157 302 m 0
 157 284 172 269 190 269 c 0
 208 269 223 284 223 302 c 0
 223 320 208 335 190 335 c 0
 172 335 157 320 157 302 c 0
152 302 m 0
 152 323 169 340 190 340 c 0
 211 340 228 323 228 302 c 0
 228 281 211 264 190 264 c 0
 169 264 152 281 152 302 c 0
EndSplineSet
Validated: 1
EndChar

StartChar: greater
Encoding: 62 62 80
Width: 512
VWidth: 0
Flags: HW
LayerCount: 2
Fore
SplineSet
284 38 m 0
 284 59 301 76 322 76 c 0
 343 76 360 59 360 38 c 0
 360 17 343 0 322 0 c 0
 301 0 284 17 284 38 c 0
152 38 m 0
 152 59 169 76 190 76 c 0
 211 76 228 59 228 38 c 0
 228 17 211 0 190 0 c 0
 169 0 152 17 152 38 c 0
284 170 m 0
 284 191 301 209 322 209 c 0
 343 209 360 191 360 170 c 0
 360 149 343 132 322 132 c 0
 301 132 284 149 284 170 c 0
152 170 m 0
 152 191 169 209 190 209 c 0
 211 209 228 191 228 170 c 0
 228 149 211 132 190 132 c 0
 169 132 152 149 152 170 c 0
289 302 m 0
 289 284 304 269 322 269 c 0
 340 269 355 284 355 302 c 0
 355 320 340 335 322 335 c 0
 304 335 289 320 289 302 c 0
284 302 m 0
 284 323 301 340 322 340 c 0
 343 340 360 323 360 302 c 0
 360 281 343 264 322 264 c 0
 301 264 284 281 284 302 c 0
157 302 m 0
 157 284 172 269 190 269 c 0
 208 269 223 284 223 302 c 0
 223 320 208 335 190 335 c 0
 172 335 157 320 157 302 c 0
152 302 m 0
 152 323 169 340 190 340 c 0
 211 340 228 323 228 302 c 0
 228 281 211 264 190 264 c 0
 169 264 152 281 152 302 c 0
EndSplineSet
Validated: 1
EndChar

StartChar: asterisk
Encoding: 42 42 81
Width: 512
VWidth: 0
Flags: HW
LayerCount: 2
Fore
SplineSet
284 38 m 0
 284 59 301 76 322 76 c 0
 343 76 360 59 360 38 c 0
 360 17 343 0 322 0 c 0
 301 0 284 17 284 38 c 0
157 38 m 0
 157 20 172 5 190 5 c 0
 208 5 223 20 223 38 c 0
 223 56 208 71 190 71 c 0
 172 71 157 56 157 38 c 0
152 38 m 0
 152 59 169 76 190 76 c 0
 211 76 228 59 228 38 c 0
 228 17 211 0 190 0 c 0
 169 0 152 17 152 38 c 0
289 170 m 0
 289 152 304 137 322 137 c 0
 340 137 355 152 355 170 c 0
 355 188 340 204 322 204 c 0
 304 204 289 188 289 170 c 0
284 170 m 0
 284 191 301 209 322 209 c 0
 343 209 360 191 360 170 c 0
 360 149 343 132 322 132 c 0
 301 132 284 149 284 170 c 0
157 170 m 0
 157 152 172 137 190 137 c 0
 208 137 223 152 223 170 c 0
 223 188 208 204 190 204 c 0
 172 204 157 188 157 170 c 0
152 170 m 0
 152 191 169 209 190 209 c 0
 211 209 228 191 228 170 c 0
 228 149 211 132 190 132 c 0
 169 132 152 149 152 170 c 0
289 302 m 0
 289 284 304 269 322 269 c 0
 340 269 355 284 355 302 c 0
 355 320 340 335 322 335 c 0
 304 335 289 320 289 302 c 0
284 302 m 0
 284 323 301 340 322 340 c 0
 343 340 360 323 360 302 c 0
 360 281 343 264 322 264 c 0
 301 264 284 281 284 302 c 0
152 302 m 0
 152 323 169 340 190 340 c 0
 211 340 228 323 228 302 c 0
 228 281 211 264 190 264 c 0
 169 264 152 281 152 302 c 0
EndSplineSet
Validated: 1
EndChar

StartChar: space
Encoding: 32 32 82
Width: 512
VWidth: 0
Flags: H
LayerCount: 2
Fore
SplineSet
256 205 m 1053
NamedP: "Excuse"
EndSplineSet
Comment: "We need to add something in the glyph, to prevent the +ACIA-unknown glyph+ACIA square to appear. I have decided to add a single, invisible point"
EndChar

StartChar: quotedbl
Encoding: 34 34 83
Width: 512
VWidth: 0
Flags: HW
LayerCount: 2
Fore
SplineSet
289 38 m 0
 289 20 304 5 322 5 c 0
 340 5 355 20 355 38 c 0
 355 56 340 71 322 71 c 0
 304 71 289 56 289 38 c 0
284 38 m 0
 284 59 301 76 322 76 c 0
 343 76 360 59 360 38 c 0
 360 17 343 0 322 0 c 0
 301 0 284 17 284 38 c 0
152 38 m 0
 152 59 169 76 190 76 c 0
 211 76 228 59 228 38 c 0
 228 17 211 0 190 0 c 0
 169 0 152 17 152 38 c 0
289 170 m 0
 289 152 304 137 322 137 c 0
 340 137 355 152 355 170 c 0
 355 188 340 204 322 204 c 0
 304 204 289 188 289 170 c 0
284 170 m 0
 284 191 301 209 322 209 c 0
 343 209 360 191 360 170 c 0
 360 149 343 132 322 132 c 0
 301 132 284 149 284 170 c 0
157 170 m 0
 157 152 172 137 190 137 c 0
 208 137 223 152 223 170 c 0
 223 188 208 204 190 204 c 0
 172 204 157 188 157 170 c 0
152 170 m 0
 152 191 169 209 190 209 c 0
 211 209 228 191 228 170 c 0
 228 149 211 132 190 132 c 0
 169 132 152 149 152 170 c 0
289 302 m 0
 289 284 304 269 322 269 c 0
 340 269 355 284 355 302 c 0
 355 320 340 335 322 335 c 0
 304 335 289 320 289 302 c 0
284 302 m 0
 284 323 301 340 322 340 c 0
 343 340 360 323 360 302 c 0
 360 281 343 264 322 264 c 0
 301 264 284 281 284 302 c 0
157 302 m 0
 157 284 172 269 190 269 c 0
 208 269 223 284 223 302 c 0
 223 320 208 335 190 335 c 0
 172 335 157 320 157 302 c 0
152 302 m 0
 152 323 169 340 190 340 c 0
 211 340 228 323 228 302 c 0
 228 281 211 264 190 264 c 0
 169 264 152 281 152 302 c 0
EndSplineSet
EndChar
